<svg xmlns="http://www.w3.org/2000/svg" width="1298" height="1459" viewBox="0 0 1298 1459" role="img" aria-labelledby="title desc"><title id="title">Ardanos: Chronik des Reiches</title><desc id="desc">Geschichte der Kaiser und Fürstenhäuser</desc><style>.title{font:700 24px Georgia, serif;fill:#1f1a16;}.subtitle{font:400 13px Georgia, serif;fill:#5a4f45;}.axis-label{font:600 11px Arial, sans-serif;fill:#5b5248;}.year-label{font:600 10px Arial, sans-serif;fill:#6a6158;}.column-label{font:700 12px Arial, sans-serif;fill:#201b17;}.item-label{font:600 10px Arial, sans-serif;fill:#ffffff;}.item-label-small{font:600 8.5px Arial, sans-serif;fill:#ffffff;}.item-label-dark{font:600 10px Arial, sans-serif;fill:#2c241d;}.item-label-dark-small{font:600 8.5px Arial, sans-serif;fill:#2c241d;}.lane-divider{stroke:#ffffff;stroke-width:1;opacity:0.7;}.column-border{stroke:#938778;stroke-width:1.2;fill:none;}.year-grid{stroke:#d8cec0;stroke-width:1;}.era-line{stroke:#b8ab98;stroke-width:1.2;stroke-dasharray:5 4;}.point-line{stroke:#3a3129;stroke-width:1.4;}</style><text class="title" x="100" y="42">Ardanos: Chronik des Reiches</text><text class="subtitle" x="100" y="66">Geschichte der Kaiser und Fürstenhäuser</text><rect x="100" y="130.0" width="1158" height="540.0" fill="#f7f1df" opacity="0.45"/><text class="axis-label" x="106" y="144.0">Erstes Zeitalter</text><line class="era-line" x1="100" y1="130.0" x2="1258" y2="130.0"/><rect x="100" y="670.0" width="1158" height="541.7" fill="#efe6d2" opacity="0.45"/><text class="axis-label" x="106" y="684.0">Zweites Zeitalter</text><line class="era-line" x1="100" y1="670.0" x2="1258" y2="670.0"/><rect x="100" y="1211.7" width="1158" height="186.8" fill="#e8ddca" opacity="0.45"/><text class="axis-label" x="106" y="1225.7">Drittes Zeitalter</text><line class="era-line" x1="100" y1="1211.7" x2="1258" y2="1211.7"/><line class="year-grid" x1="100" y1="130.0" x2="1258" y2="130.0"/><text class="year-label" x="88" y="134.0" text-anchor="end">300</text><line class="year-grid" x1="100" y1="188.0" x2="1258" y2="188.0"/><text class="year-label" x="88" y="192.0" text-anchor="end">400</text><line class="year-grid" x1="100" y1="246.0" x2="1258" y2="246.0"/><text class="year-label" x="88" y="250.0" text-anchor="end">500</text><line class="year-grid" x1="100" y1="304.0" x2="1258" y2="304.0"/><text class="year-label" x="88" y="308.0" text-anchor="end">600</text><line class="year-grid" x1="100" y1="362.0" x2="1258" y2="362.0"/><text class="year-label" x="88" y="366.0" text-anchor="end">700</text><line class="year-grid" x1="100" y1="420.0" x2="1258" y2="420.0"/><text class="year-label" x="88" y="424.0" text-anchor="end">800</text><line class="year-grid" x1="100" y1="478.0" x2="1258" y2="478.0"/><text class="year-label" x="88" y="482.0" text-anchor="end">900</text><line class="year-grid" x1="100" y1="536.0" x2="1258" y2="536.0"/><text class="year-label" x="88" y="540.0" text-anchor="end">1000</text><line class="year-grid" x1="100" y1="594.0" x2="1258" y2="594.0"/><text class="year-label" x="88" y="598.0" text-anchor="end">1100</text><line class="year-grid" x1="100" y1="652.0" x2="1258" y2="652.0"/><text class="year-label" x="88" y="656.0" text-anchor="end">1200</text><line class="year-grid" x1="100" y1="710.0" x2="1258" y2="710.0"/><text class="year-label" x="88" y="714.0" text-anchor="end">1300</text><line class="year-grid" x1="100" y1="768.0" x2="1258" y2="768.0"/><text class="year-label" x="88" y="772.0" text-anchor="end">1400</text><line class="year-grid" x1="100" y1="826.0" x2="1258" y2="826.0"/><text class="year-label" x="88" y="830.0" text-anchor="end">1500</text><line class="year-grid" x1="100" y1="884.0" x2="1258" y2="884.0"/><text class="year-label" x="88" y="888.0" text-anchor="end">1600</text><line class="year-grid" x1="100" y1="942.0" x2="1258" y2="942.0"/><text class="year-label" x="88" y="946.0" text-anchor="end">1700</text><line class="year-grid" x1="100" y1="1000.0" x2="1258" y2="1000.0"/><text class="year-label" x="88" y="1004.0" text-anchor="end">1800</text><line class="year-grid" x1="100" y1="1058.0" x2="1258" y2="1058.0"/><text class="year-label" x="88" y="1062.0" text-anchor="end">1900</text><line class="year-grid" x1="100" y1="1116.0" x2="1258" y2="1116.0"/><text class="year-label" x="88" y="1120.0" text-anchor="end">2000</text><line class="year-grid" x1="100" y1="1174.0" x2="1258" y2="1174.0"/><text class="year-label" x="88" y="1178.0" text-anchor="end">2100</text><line class="year-grid" x1="100" y1="1232.0" x2="1258" y2="1232.0"/><text class="year-label" x="88" y="1236.0" text-anchor="end">2200</text><line class="year-grid" x1="100" y1="1290.0" x2="1258" y2="1290.0"/><text class="year-label" x="88" y="1294.0" text-anchor="end">2300</text><line class="year-grid" x1="100" y1="1348.0" x2="1258" y2="1348.0"/><text class="year-label" x="88" y="1352.0" text-anchor="end">2400</text><rect x="100" y="130" width="120" height="1269" fill="rgba(216, 195, 143, 0.08)"/><rect class="column-border" x="100" y="130" width="120" height="1269"/><rect x="100" y="88" width="120" height="42" fill="#d8c38f" rx="8" ry="8"/><text class="column-label" x="160.0" y="113.0" text-anchor="middle">Zeit</text><line class="lane-divider" x1="160.0" y1="130" x2="160.0" y2="1399"/><rect x="238" y="130" width="155" height="1269" fill="rgba(198, 156, 45, 0.08)"/><rect class="column-border" x="238" y="130" width="155" height="1269"/><rect x="238" y="88" width="155" height="42" fill="#c69c2d" rx="8" ry="8"/><text class="column-label" x="315.5" y="113.0" text-anchor="middle">Ardanos</text><line class="lane-divider" x1="315.5" y1="130" x2="315.5" y2="1399"/><rect x="411" y="130" width="155" height="1269" fill="rgba(122, 162, 63, 0.08)"/><rect class="column-border" x="411" y="130" width="155" height="1269"/><rect x="411" y="88" width="155" height="42" fill="#7aa23f" rx="8" ry="8"/><text class="column-label" x="488.5" y="113.0" text-anchor="middle">Elmrath</text><line class="lane-divider" x1="488.5" y1="130" x2="488.5" y2="1399"/><rect x="584" y="130" width="155" height="1269" fill="rgba(179, 92, 68, 0.08)"/><rect class="column-border" x="584" y="130" width="155" height="1269"/><rect x="584" y="88" width="155" height="42" fill="#b35c44" rx="8" ry="8"/><text class="column-label" x="661.5" y="113.0" text-anchor="middle">Drakmora</text><line class="lane-divider" x1="661.5" y1="130" x2="661.5" y2="1399"/><rect x="757" y="130" width="155" height="1269" fill="rgba(47, 138, 127, 0.08)"/><rect class="column-border" x="757" y="130" width="155" height="1269"/><rect x="757" y="88" width="155" height="42" fill="#2f8a7f" rx="8" ry="8"/><text class="column-label" x="834.5" y="113.0" text-anchor="middle">Mariven</text><line class="lane-divider" x1="834.5" y1="130" x2="834.5" y2="1399"/><rect x="930" y="130" width="155" height="1269" fill="rgba(79, 85, 99, 0.08)"/><rect class="column-border" x="930" y="130" width="155" height="1269"/><rect x="930" y="88" width="155" height="42" fill="#4f5563" rx="8" ry="8"/><text class="column-label" x="1007.5" y="113.0" text-anchor="middle">Schwarzklamm</text><line class="lane-divider" x1="1007.5" y1="130" x2="1007.5" y2="1399"/><rect x="1103" y="130" width="155" height="1269" fill="rgba(95, 131, 176, 0.08)"/><rect class="column-border" x="1103" y="130" width="155" height="1269"/><rect x="1103" y="88" width="155" height="42" fill="#5f83b0" rx="8" ry="8"/><text class="column-label" x="1180.5" y="113.0" text-anchor="middle">Vaylen</text><line class="lane-divider" x1="1180.5" y1="130" x2="1180.5" y2="1399"/><clipPath id="world-erstes-zeitalter-300-1230"><rect x="106.0" y="132.0" width="45.0" height="536.0" rx="6" ry="6"/></clipPath><rect x="104.0" y="130.0" width="49.0" height="540.0" fill="#e7d9b6" stroke="#2f2822" stroke-width="0.8" rx="7" ry="7"/><g clip-path="url(#world-erstes-zeitalter-300-1230)"><text class="item-label-dark" text-anchor="middle" transform="translate(128.5 396.0) rotate(-90)"><tspan x="0" dy="0">Erstes Zeitalter</tspan></text></g><clipPath id="world-zweites-zeitalter-1231-2164"><rect x="106.0" y="672.0" width="45.0" height="537.7" rx="6" ry="6"/></clipPath><rect x="104.0" y="670.0" width="49.0" height="541.7" fill="#dcc8a0" stroke="#2f2822" stroke-width="0.8" rx="7" ry="7"/><g clip-path="url(#world-zweites-zeitalter-1231-2164)"><text class="item-label-dark" text-anchor="middle" transform="translate(128.5 936.8) rotate(-90)"><tspan x="0" dy="0">Zweites Zeitalter</tspan></text></g><clipPath id="world-drittes-zeitalter-2165-2486"><rect x="106.0" y="1213.7" width="45.0" height="182.8" rx="6" ry="6"/></clipPath><rect x="104.0" y="1211.7" width="49.0" height="186.8" fill="#cfb27d" stroke="#2f2822" stroke-width="0.8" rx="7" ry="7"/><g clip-path="url(#world-drittes-zeitalter-2165-2486)"><text class="item-label-dark" text-anchor="middle" transform="translate(128.5 1301.1) rotate(-90)"><tspan x="0" dy="0">Drittes Zeitalter</tspan></text></g><line x1="244.0" y1="1208.8" x2="387.0" y2="1208.8" stroke="#c69c2d" stroke-width="3" stroke-dasharray="8 5"/><rect x="246.0" y="1193.8" width="139.0" height="18" fill="#fbf8f1" stroke="#c69c2d" stroke-width="1" rx="8" ry="8"/><text class="item-label-dark-small" x="254.0" y="1205.8"><tspan x="254.0" dy="0">Gruendung Kaiserreich</tspan></text><clipPath id="emperor-elyander-goldschild-2165-2199"><rect x="244.0" y="1213.7" width="62.5" height="16.3" rx="6" ry="6"/></clipPath><rect x="242.0" y="1211.7" width="66.5" height="20.3" fill="#c69c2d" stroke="#2f2822" stroke-width="0.8" rx="7" ry="7"/><g clip-path="url(#emperor-elyander-goldschild-2165-2199)"><text class="item-label-small" x="248.0" y="1223.7"><tspan x="248.0" dy="0">Elyander Goldschild</tspan></text></g><clipPath id="emperor-almareth-silven-2199-2230"><rect x="244.0" y="1233.4" width="62.5" height="14.6" rx="6" ry="6"/></clipPath><rect x="242.0" y="1231.4" width="66.5" height="18.6" fill="#c69c2d" stroke="#2f2822" stroke-width="0.8" rx="7" ry="7"/><g clip-path="url(#emperor-almareth-silven-2199-2230)"><text class="item-label-small" x="248.0" y="1243.4"><tspan x="248.0" dy="0">Almareth Silven</tspan></text></g><clipPath id="emperor-barduron-steinmark-2230-2256"><rect x="244.0" y="1251.4" width="62.5" height="14.0" rx="6" ry="6"/></clipPath><rect x="242.0" y="1249.4" width="66.5" height="18.0" fill="#c69c2d" stroke="#2f2822" stroke-width="0.8" rx="7" ry="7"/><g clip-path="url(#emperor-barduron-steinmark-2230-2256)"><text class="item-label-small" x="248.0" y="1261.4"><tspan x="248.0" dy="0">Barduron Steinmark</tspan></text></g><clipPath id="emperor-calvius-thorne-2256-2283"><rect x="244.0" y="1266.5" width="62.5" height="14.0" rx="6" ry="6"/></clipPath><rect x="242.0" y="1264.5" width="66.5" height="18.0" fill="#c69c2d" stroke="#2f2822" stroke-width="0.8" rx="7" ry="7"/><g clip-path="url(#emperor-calvius-thorne-2256-2283)"><text class="item-label-small" x="248.0" y="1276.5"><tspan x="248.0" dy="0">Calvius Thorne</tspan></text></g><clipPath id="emperor-dural-goldschild-ii-2283-2318"><rect x="244.0" y="1282.1" width="62.5" height="16.9" rx="6" ry="6"/></clipPath><rect x="242.0" y="1280.1" width="66.5" height="20.9" fill="#c69c2d" stroke="#2f2822" stroke-width="0.8" rx="7" ry="7"/><g clip-path="url(#emperor-dural-goldschild-ii-2283-2318)"><text class="item-label-small" x="248.0" y="1292.1"><tspan x="248.0" dy="0">Dural</tspan></text></g><clipPath id="emperor-marcellon-arven-2319-2354"><rect x="244.0" y="1303.0" width="62.5" height="16.9" rx="6" ry="6"/></clipPath><rect x="242.0" y="1301.0" width="66.5" height="20.9" fill="#c69c2d" stroke="#2f2822" stroke-width="0.8" rx="7" ry="7"/><g clip-path="url(#emperor-marcellon-arven-2319-2354)"><text class="item-label-small" x="248.0" y="1313.0"><tspan x="248.0" dy="0">Marcellon Arven</tspan></text></g><clipPath id="emperor-virella-nyssien-2355-2381"><rect x="244.0" y="1323.9" width="62.5" height="14.0" rx="6" ry="6"/></clipPath><rect x="242.0" y="1321.9" width="66.5" height="18.0" fill="#c69c2d" stroke="#2f2822" stroke-width="0.8" rx="7" ry="7"/><g clip-path="url(#emperor-virella-nyssien-2355-2381)"><text class="item-label-small" x="248.0" y="1333.9"><tspan x="248.0" dy="0">Virella Nyssien</tspan></text></g><clipPath id="emperor-balrik-hammergrund-2382-2409"><rect x="244.0" y="1339.6" width="62.5" height="14.0" rx="6" ry="6"/></clipPath><rect x="242.0" y="1337.6" width="66.5" height="18.0" fill="#c69c2d" stroke="#2f2822" stroke-width="0.8" rx="7" ry="7"/><g clip-path="url(#emperor-balrik-hammergrund-2382-2409)"><text class="item-label-small" x="248.0" y="1349.6"><tspan x="248.0" dy="0">Balrik Hammergrund</tspan></text></g><clipPath id="emperor-alinor-thorne-ii-2410-2442"><rect x="244.0" y="1355.8" width="62.5" height="15.1" rx="6" ry="6"/></clipPath><rect x="242.0" y="1353.8" width="66.5" height="19.1" fill="#c69c2d" stroke="#2f2822" stroke-width="0.8" rx="7" ry="7"/><g clip-path="url(#emperor-alinor-thorne-ii-2410-2442)"><text class="item-label-small" x="248.0" y="1365.8"><tspan x="248.0" dy="0">Alinor</tspan></text></g><clipPath id="emperor-elsinya-arven-2443-2469"><rect x="244.0" y="1374.9" width="62.5" height="14.0" rx="6" ry="6"/></clipPath><rect x="242.0" y="1372.9" width="66.5" height="18.0" fill="#c69c2d" stroke="#2f2822" stroke-width="0.8" rx="7" ry="7"/><g clip-path="url(#emperor-elsinya-arven-2443-2469)"><text class="item-label-small" x="248.0" y="1384.9"><tspan x="248.0" dy="0">Elsinya Arven</tspan></text></g><clipPath id="emperor-durnek-eisenmark-2470-2483"><rect x="244.0" y="1390.6" width="62.5" height="14.0" rx="6" ry="6"/></clipPath><rect x="242.0" y="1388.6" width="66.5" height="18.0" fill="#c69c2d" stroke="#2f2822" stroke-width="0.8" rx="7" ry="7"/><g clip-path="url(#emperor-durnek-eisenmark-2470-2483)"><text class="item-label-small" x="248.0" y="1400.6"><tspan x="248.0" dy="0">Durnek Eisenmark</tspan></text></g><clipPath id="emperor-aldric-von-elmrath-2484-2486"><rect x="244.0" y="1398.7" width="62.5" height="14.0" rx="6" ry="6"/></clipPath><rect x="242.0" y="1396.7" width="66.5" height="18.0" fill="#c69c2d" stroke="#2f2822" stroke-width="0.8" rx="7" ry="7"/><g clip-path="url(#emperor-aldric-von-elmrath-2484-2486)"><text class="item-label-small" x="248.0" y="1408.7"><tspan x="248.0" dy="0">Aldric</tspan></text></g><clipPath id="emperor-invasion-der-nordbarbaren-2025-2165"><rect x="324.5" y="1132.5" width="62.5" height="77.8" rx="6" ry="6"/></clipPath><rect x="322.5" y="1130.5" width="66.5" height="81.8" fill="#d1b057" stroke="#2f2822" stroke-width="0.8" rx="7" ry="7"/><g clip-path="url(#emperor-invasion-der-nordbarbaren-2025-2165)"><text class="item-label" x="328.5" y="1142.5"><tspan x="328.5" dy="0">Invasion</tspan><tspan x="328.5" dy="11">der Nordbarbaren</tspan><tspan x="328.5" dy="11">2025-2165</tspan></text></g><polygon points="355.8,1198.8 365.8,1208.8 355.8,1218.8 345.8,1208.8" fill="#d1b057" stroke="#2f2822" stroke-width="1"/><line class="point-line" x1="355.8" y1="1218.8" x2="355.8" y2="1236.8"/><text class="item-label-dark" x="359.8" y="1232.8"><tspan x="359.8" dy="0">Eid</tspan><tspan x="359.8" dy="11">von Morgenfels</tspan></text><polygon points="355.8,1200.0 365.8,1210.0 355.8,1220.0 345.8,1210.0" fill="#d1b057" stroke="#2f2822" stroke-width="1"/><line class="point-line" x1="355.8" y1="1220.0" x2="355.8" y2="1238.0"/><text class="item-label-dark" x="359.8" y="1234.0"><tspan x="359.8" dy="0">Feuerfeld</tspan><tspan x="359.8" dy="11">von Nebelstein</tspan></text><clipPath id="emperor-blutfeldzug-in-der-aschenweite-2478-2482"><rect x="324.5" y="1395.2" width="62.5" height="14.0" rx="6" ry="6"/></clipPath><rect x="322.5" y="1393.2" width="66.5" height="18.0" fill="#d1b057" stroke="#2f2822" stroke-width="0.8" rx="7" ry="7"/><g clip-path="url(#emperor-blutfeldzug-in-der-aschenweite-2478-2482)"><text class="item-label-small" x="328.5" y="1405.2"><tspan x="328.5" dy="0">Blutfeldzug in</tspan></text></g><line x1="417.0" y1="276.7" x2="560.0" y2="276.7" stroke="#7aa23f" stroke-width="3" stroke-dasharray="8 5"/><rect x="419.0" y="261.7" width="139.0" height="18" fill="#fbf8f1" stroke="#7aa23f" stroke-width="1" rx="8" ry="8"/><text class="item-label-dark-small" x="427.0" y="273.7"><tspan x="427.0" dy="0">Gruendung Elmrath</tspan></text><clipPath id="elmrath-caelynn-morgenblatt-553-1041"><rect x="417.0" y="278.7" width="62.5" height="279.6" rx="6" ry="6"/></clipPath><rect x="415.0" y="276.7" width="66.5" height="283.6" fill="#7aa23f" stroke="#2f2822" stroke-width="0.8" rx="7" ry="7"/><g clip-path="url(#elmrath-caelynn-morgenblatt-553-1041)"><text class="item-label" x="421.0" y="288.7"><tspan x="421.0" dy="0">Caelynn Morgenblatt</tspan><tspan x="421.0" dy="11">553-1041</tspan></text></g><clipPath id="elmrath-thaevan-silberhain-1014-1159"><rect x="417.0" y="546.1" width="62.5" height="80.7" rx="6" ry="6"/></clipPath><rect x="415.0" y="544.1" width="66.5" height="84.7" fill="#7aa23f" stroke="#2f2822" stroke-width="0.8" rx="7" ry="7"/><g clip-path="url(#elmrath-thaevan-silberhain-1014-1159)"><text class="item-label" x="421.0" y="556.1"><tspan x="421.0" dy="0">Thaevan Silberhain</tspan><tspan x="421.0" dy="11">1014-1159</tspan></text></g><clipPath id="elmrath-elenion-silberhain-1041-1455"><rect x="417.0" y="561.8" width="62.5" height="236.7" rx="6" ry="6"/></clipPath><rect x="415.0" y="559.8" width="66.5" height="240.7" fill="#7aa23f" stroke="#2f2822" stroke-width="0.8" rx="7" ry="7"/><g clip-path="url(#elmrath-elenion-silberhain-1041-1455)"><text class="item-label" x="421.0" y="571.8"><tspan x="421.0" dy="0">Elenion Silberhain</tspan><tspan x="421.0" dy="11">1041-1455</tspan></text></g><clipPath id="elmrath-elirae-nyssien-1159-1433"><rect x="417.0" y="630.2" width="62.5" height="155.5" rx="6" ry="6"/></clipPath><rect x="415.0" y="628.2" width="66.5" height="159.5" fill="#7aa23f" stroke="#2f2822" stroke-width="0.8" rx="7" ry="7"/><g clip-path="url(#elmrath-elirae-nyssien-1159-1433)"><text class="item-label" x="421.0" y="640.2"><tspan x="421.0" dy="0">Elirae Nyssien</tspan><tspan x="421.0" dy="11">1159-1433</tspan></text></g><clipPath id="elmrath-aenyris-silberhain-1456-1014"><rect x="417.0" y="802.5" width="62.5" height="14.0" rx="6" ry="6"/></clipPath><rect x="415.0" y="800.5" width="66.5" height="18.0" fill="#7aa23f" stroke="#2f2822" stroke-width="0.8" rx="7" ry="7"/><g clip-path="url(#elmrath-aenyris-silberhain-1456-1014)"><text class="item-label-small" x="421.0" y="812.5"><tspan x="421.0" dy="0">Aenyris Silberhain</tspan></text></g><clipPath id="elmrath-orellan-d-mmerwald-1487-1610"><rect x="417.0" y="820.5" width="62.5" height="67.9" rx="6" ry="6"/></clipPath><rect x="415.0" y="818.5" width="66.5" height="71.9" fill="#7aa23f" stroke="#2f2822" stroke-width="0.8" rx="7" ry="7"/><g clip-path="url(#elmrath-orellan-d-mmerwald-1487-1610)"><text class="item-label" x="421.0" y="830.5"><tspan x="421.0" dy="0">Orellan Dämmerwald</tspan><tspan x="421.0" dy="11">1487-1610</tspan></text></g><clipPath id="elmrath-isilme-d-mmerwald-1610-1765"><rect x="417.0" y="891.8" width="62.5" height="86.5" rx="6" ry="6"/></clipPath><rect x="415.0" y="889.8" width="66.5" height="90.5" fill="#7aa23f" stroke="#2f2822" stroke-width="0.8" rx="7" ry="7"/><g clip-path="url(#elmrath-isilme-d-mmerwald-1610-1765)"><text class="item-label" x="421.0" y="901.8"><tspan x="421.0" dy="0">Isilme Dämmerwald</tspan><tspan x="421.0" dy="11">1610-1765</tspan></text></g><clipPath id="elmrath-arannis-silven-1765-1914"><rect x="417.0" y="981.7" width="62.5" height="83.0" rx="6" ry="6"/></clipPath><rect x="415.0" y="979.7" width="66.5" height="87.0" fill="#7aa23f" stroke="#2f2822" stroke-width="0.8" rx="7" ry="7"/><g clip-path="url(#elmrath-arannis-silven-1765-1914)"><text class="item-label" x="421.0" y="991.7"><tspan x="421.0" dy="0">Arannis Silven</tspan><tspan x="421.0" dy="11">1765-1914</tspan></text></g><clipPath id="elmrath-naeryss-silven-1914-2325"><rect x="417.0" y="1068.1" width="62.5" height="235.0" rx="6" ry="6"/></clipPath><rect x="415.0" y="1066.1" width="66.5" height="239.0" fill="#7aa23f" stroke="#2f2822" stroke-width="0.8" rx="7" ry="7"/><g clip-path="url(#elmrath-naeryss-silven-1914-2325)"><text class="item-label" x="421.0" y="1078.1"><tspan x="421.0" dy="0">Naeryss Silven</tspan><tspan x="421.0" dy="11">1914-2325</tspan></text></g><clipPath id="elmrath-viktoria-von-elmrath-2325-2383"><rect x="417.0" y="1306.5" width="62.5" height="30.2" rx="6" ry="6"/></clipPath><rect x="415.0" y="1304.5" width="66.5" height="34.2" fill="#7aa23f" stroke="#2f2822" stroke-width="0.8" rx="7" ry="7"/><g clip-path="url(#elmrath-viktoria-von-elmrath-2325-2383)"><text class="item-label" x="421.0" y="1316.5"><tspan x="421.0" dy="0">Viktoria</tspan><tspan x="421.0" dy="11">von Elmrath</tspan></text></g><clipPath id="elmrath-elsinya-von-elmrath-2383-2448"><rect x="417.0" y="1340.1" width="62.5" height="34.3" rx="6" ry="6"/></clipPath><rect x="415.0" y="1338.1" width="66.5" height="38.3" fill="#7aa23f" stroke="#2f2822" stroke-width="0.8" rx="7" ry="7"/><g clip-path="url(#elmrath-elsinya-von-elmrath-2383-2448)"><text class="item-label" x="421.0" y="1350.1"><tspan x="421.0" dy="0">Elsinya</tspan><tspan x="421.0" dy="11">von Elmrath</tspan></text></g><clipPath id="elmrath-thalric-von-elmrath-2443-2486"><rect x="417.0" y="1374.9" width="62.5" height="21.5" rx="6" ry="6"/></clipPath><rect x="415.0" y="1372.9" width="66.5" height="25.5" fill="#7aa23f" stroke="#2f2822" stroke-width="0.8" rx="7" ry="7"/><g clip-path="url(#elmrath-thalric-von-elmrath-2443-2486)"><text class="item-label-small" x="421.0" y="1384.9"><tspan x="421.0" dy="0">Thalric</tspan></text></g><clipPath id="elmrath-nord-s-d-konflikt-1304-1307"><rect x="497.5" y="714.3" width="62.5" height="14.0" rx="6" ry="6"/></clipPath><rect x="495.5" y="712.3" width="66.5" height="18.0" fill="#95b565" stroke="#5b1f1f" stroke-width="1.8" stroke-dasharray="6 3" rx="7" ry="7"/><g clip-path="url(#elmrath-nord-s-d-konflikt-1304-1307)"><text class="item-label-small" x="501.5" y="724.3"><tspan x="501.5" dy="0">Nord-Süd-Konflikt</tspan></text></g><clipPath id="elmrath-muschelkrieg-1401-1402"><rect x="497.5" y="770.6" width="62.5" height="14.0" rx="6" ry="6"/></clipPath><rect x="495.5" y="768.6" width="66.5" height="18.0" fill="#95b565" stroke="#5b1f1f" stroke-width="1.8" stroke-dasharray="6 3" rx="7" ry="7"/><g clip-path="url(#elmrath-muschelkrieg-1401-1402)"><text class="item-label-small" x="501.5" y="780.6"><tspan x="501.5" dy="0">Muschelkrieg</tspan></text></g><polygon points="528.8,1365.3 538.8,1375.3 528.8,1385.3 518.8,1375.3" fill="#95b565" stroke="#2f2822" stroke-width="1"/><line class="point-line" x1="528.8" y1="1385.3" x2="528.8" y2="1403.3"/><text class="item-label-dark" x="532.8" y="1399.3"><tspan x="532.8" dy="0">Das Sonnenwunder</tspan><tspan x="532.8" dy="11">von Valmere</tspan></text><line x1="590.0" y1="309.8" x2="733.0" y2="309.8" stroke="#b35c44" stroke-width="3" stroke-dasharray="8 5"/><rect x="592.0" y="294.8" width="139.0" height="18" fill="#fbf8f1" stroke="#b35c44" stroke-width="1" rx="8" ry="8"/><text class="item-label-dark-small" x="600.0" y="306.8"><tspan x="600.0" dy="0">Gruendung Drakmora</tspan></text><clipPath id="drakmora-brogorn-klingenzorn-610-688"><rect x="590.0" y="311.8" width="62.5" height="41.8" rx="6" ry="6"/></clipPath><rect x="588.0" y="309.8" width="66.5" height="45.8" fill="#b35c44" stroke="#2f2822" stroke-width="0.8" rx="7" ry="7"/><g clip-path="url(#drakmora-brogorn-klingenzorn-610-688)"><text class="item-label" x="594.0" y="321.8"><tspan x="594.0" dy="0">Brogorn Klingenzorn</tspan><tspan x="594.0" dy="11">610-688</tspan></text></g><clipPath id="drakmora-khara-eisenblick-688-721"><rect x="590.0" y="357.0" width="62.5" height="15.7" rx="6" ry="6"/></clipPath><rect x="588.0" y="355.0" width="66.5" height="19.7" fill="#b35c44" stroke="#2f2822" stroke-width="0.8" rx="7" ry="7"/><g clip-path="url(#drakmora-khara-eisenblick-688-721)"><text class="item-label-small" x="594.0" y="367.0"><tspan x="594.0" dy="0">Khara Eisenblick</tspan></text></g><clipPath id="drakmora-uldak-schmetterschlag-721-790"><rect x="590.0" y="376.2" width="62.5" height="36.6" rx="6" ry="6"/></clipPath><rect x="588.0" y="374.2" width="66.5" height="40.6" fill="#b35c44" stroke="#2f2822" stroke-width="0.8" rx="7" ry="7"/><g clip-path="url(#drakmora-uldak-schmetterschlag-721-790)"><text class="item-label" x="594.0" y="386.2"><tspan x="594.0" dy="0">Uldak Schmetterschlag</tspan></text></g><clipPath id="drakmora-dunmorr-der-st-hlerne-790-853"><rect x="590.0" y="416.2" width="62.5" height="33.1" rx="6" ry="6"/></clipPath><rect x="588.0" y="414.2" width="66.5" height="37.1" fill="#b35c44" stroke="#2f2822" stroke-width="0.8" rx="7" ry="7"/><g clip-path="url(#drakmora-dunmorr-der-st-hlerne-790-853)"><text class="item-label" x="594.0" y="426.2"><tspan x="594.0" dy="0">Dunmorr</tspan><tspan x="594.0" dy="11">der Stählerne</tspan></text></g><clipPath id="drakmora-harnak-blutgeboren-853-910"><rect x="590.0" y="452.7" width="62.5" height="29.6" rx="6" ry="6"/></clipPath><rect x="588.0" y="450.7" width="66.5" height="33.6" fill="#b35c44" stroke="#2f2822" stroke-width="0.8" rx="7" ry="7"/><g clip-path="url(#drakmora-harnak-blutgeboren-853-910)"><text class="item-label" x="594.0" y="462.7"><tspan x="594.0" dy="0">Harnak Blutgeboren</tspan></text></g><clipPath id="drakmora-rogda-speerflamme-910-1002"><rect x="590.0" y="485.8" width="62.5" height="49.9" rx="6" ry="6"/></clipPath><rect x="588.0" y="483.8" width="66.5" height="53.9" fill="#b35c44" stroke="#2f2822" stroke-width="0.8" rx="7" ry="7"/><g clip-path="url(#drakmora-rogda-speerflamme-910-1002)"><text class="item-label" x="594.0" y="495.8"><tspan x="594.0" dy="0">Rogda Speerflamme</tspan><tspan x="594.0" dy="11">910-1002</tspan></text></g><clipPath id="drakmora-durvak-grimmhammer-1002-1230"><rect x="590.0" y="539.2" width="62.5" height="128.8" rx="6" ry="6"/></clipPath><rect x="588.0" y="537.2" width="66.5" height="132.8" fill="#b35c44" stroke="#2f2822" stroke-width="0.8" rx="7" ry="7"/><g clip-path="url(#drakmora-durvak-grimmhammer-1002-1230)"><text class="item-label" x="594.0" y="549.2"><tspan x="594.0" dy="0">Durvak Grimmhammer</tspan><tspan x="594.0" dy="11">1002-1230</tspan></text></g><clipPath id="drakmora-marthok-goldschild-1231-1284"><rect x="590.0" y="672.0" width="62.5" height="27.3" rx="6" ry="6"/></clipPath><rect x="588.0" y="670.0" width="66.5" height="31.3" fill="#b35c44" stroke="#2f2822" stroke-width="0.8" rx="7" ry="7"/><g clip-path="url(#drakmora-marthok-goldschild-1231-1284)"><text class="item-label" x="594.0" y="682.0"><tspan x="594.0" dy="0">Marthok Goldschild</tspan></text></g><clipPath id="drakmora-tyrak-der-wilde-1284-1332"><rect x="590.0" y="702.7" width="62.5" height="24.4" rx="6" ry="6"/></clipPath><rect x="588.0" y="700.7" width="66.5" height="28.4" fill="#b35c44" stroke="#2f2822" stroke-width="0.8" rx="7" ry="7"/><g clip-path="url(#drakmora-tyrak-der-wilde-1284-1332)"><text class="item-label" x="594.0" y="712.7"><tspan x="594.0" dy="0">Tyrak</tspan><tspan x="594.0" dy="11">der Wilde</tspan></text></g><clipPath id="drakmora-sigrid-eisenfaust-1332-1410"><rect x="590.0" y="730.6" width="62.5" height="41.8" rx="6" ry="6"/></clipPath><rect x="588.0" y="728.6" width="66.5" height="45.8" fill="#b35c44" stroke="#2f2822" stroke-width="0.8" rx="7" ry="7"/><g clip-path="url(#drakmora-sigrid-eisenfaust-1332-1410)"><text class="item-label" x="594.0" y="740.6"><tspan x="594.0" dy="0">Sigrid Eisenfaust</tspan><tspan x="594.0" dy="11">1332-1410</tspan></text></g><clipPath id="drakmora-varrun-brechmaul-1410-1527"><rect x="590.0" y="775.8" width="62.5" height="64.4" rx="6" ry="6"/></clipPath><rect x="588.0" y="773.8" width="66.5" height="68.4" fill="#b35c44" stroke="#2f2822" stroke-width="0.8" rx="7" ry="7"/><g clip-path="url(#drakmora-varrun-brechmaul-1410-1527)"><text class="item-label" x="594.0" y="785.8"><tspan x="594.0" dy="0">Varrun Brechmaul</tspan><tspan x="594.0" dy="11">1410-1527</tspan></text></g><clipPath id="drakmora-thorgim-donnerklinge-1527-1694"><rect x="590.0" y="843.7" width="62.5" height="93.4" rx="6" ry="6"/></clipPath><rect x="588.0" y="841.7" width="66.5" height="97.4" fill="#b35c44" stroke="#2f2822" stroke-width="0.8" rx="7" ry="7"/><g clip-path="url(#drakmora-thorgim-donnerklinge-1527-1694)"><text class="item-label" x="594.0" y="853.7"><tspan x="594.0" dy="0">Thorgim Donnerklinge</tspan><tspan x="594.0" dy="11">1527-1694</tspan></text></g><clipPath id="drakmora-karnok-splitterbart-1694-1790"><rect x="590.0" y="940.5" width="62.5" height="52.3" rx="6" ry="6"/></clipPath><rect x="588.0" y="938.5" width="66.5" height="56.3" fill="#b35c44" stroke="#2f2822" stroke-width="0.8" rx="7" ry="7"/><g clip-path="url(#drakmora-karnok-splitterbart-1694-1790)"><text class="item-label" x="594.0" y="950.5"><tspan x="594.0" dy="0">Karnok Splitterbart</tspan><tspan x="594.0" dy="11">1694-1790</tspan></text></g><clipPath id="drakmora-oghrim-der-alte-1790-1990"><rect x="590.0" y="996.2" width="62.5" height="112.6" rx="6" ry="6"/></clipPath><rect x="588.0" y="994.2" width="66.5" height="116.6" fill="#b35c44" stroke="#2f2822" stroke-width="0.8" rx="7" ry="7"/><g clip-path="url(#drakmora-oghrim-der-alte-1790-1990)"><text class="item-label" x="594.0" y="1006.2"><tspan x="594.0" dy="0">Oghrim</tspan><tspan x="594.0" dy="11">der Alte</tspan><tspan x="594.0" dy="11">1790-1990</tspan></text></g><clipPath id="drakmora-garrik-sturmherr-1990-2166"><rect x="590.0" y="1112.2" width="62.5" height="98.7" rx="6" ry="6"/></clipPath><rect x="588.0" y="1110.2" width="66.5" height="102.7" fill="#b35c44" stroke="#2f2822" stroke-width="0.8" rx="7" ry="7"/><g clip-path="url(#drakmora-garrik-sturmherr-1990-2166)"><text class="item-label" x="594.0" y="1122.2"><tspan x="594.0" dy="0">Garrik Sturmherr</tspan><tspan x="594.0" dy="11">1990-2166</tspan></text></g><clipPath id="drakmora-barag-steinhorn-2166-2233"><rect x="590.0" y="1214.3" width="62.5" height="35.4" rx="6" ry="6"/></clipPath><rect x="588.0" y="1212.3" width="66.5" height="39.4" fill="#b35c44" stroke="#2f2822" stroke-width="0.8" rx="7" ry="7"/><g clip-path="url(#drakmora-barag-steinhorn-2166-2233)"><text class="item-label" x="594.0" y="1224.3"><tspan x="594.0" dy="0">Barag Steinhorn</tspan></text></g><clipPath id="drakmora-torgak-eisenbrand-2233-2344"><rect x="590.0" y="1253.1" width="62.5" height="61.0" rx="6" ry="6"/></clipPath><rect x="588.0" y="1251.1" width="66.5" height="65.0" fill="#b35c44" stroke="#2f2822" stroke-width="0.8" rx="7" ry="7"/><g clip-path="url(#drakmora-torgak-eisenbrand-2233-2344)"><text class="item-label" x="594.0" y="1263.1"><tspan x="594.0" dy="0">Torgak Eisenbrand</tspan><tspan x="594.0" dy="11">2233-2344</tspan></text></g><clipPath id="drakmora-valaine-nebelhain-2344-2486"><rect x="590.0" y="1317.5" width="62.5" height="78.9" rx="6" ry="6"/></clipPath><rect x="588.0" y="1315.5" width="66.5" height="82.9" fill="#b35c44" stroke="#2f2822" stroke-width="0.8" rx="7" ry="7"/><g clip-path="url(#drakmora-valaine-nebelhain-2344-2486)"><text class="item-label" x="594.0" y="1327.5"><tspan x="594.0" dy="0">Valaine Nebelhain</tspan><tspan x="594.0" dy="11">2344-2486</tspan></text></g><clipPath id="drakmora-nord-s-d-konflikt-1304-1307"><rect x="670.5" y="714.3" width="62.5" height="14.0" rx="6" ry="6"/></clipPath><rect x="668.5" y="712.3" width="66.5" height="18.0" fill="#c27d69" stroke="#5b1f1f" stroke-width="1.8" stroke-dasharray="6 3" rx="7" ry="7"/><g clip-path="url(#drakmora-nord-s-d-konflikt-1304-1307)"><text class="item-label-small" x="674.5" y="724.3"><tspan x="674.5" dy="0">Nord-Süd-Konflikt</tspan></text></g><clipPath id="drakmora-erzkrieg-von-eron-gath-1526-1528"><rect x="670.5" y="843.1" width="62.5" height="14.0" rx="6" ry="6"/></clipPath><rect x="668.5" y="841.1" width="66.5" height="18.0" fill="#c27d69" stroke="#5b1f1f" stroke-width="1.8" stroke-dasharray="6 3" rx="7" ry="7"/><g clip-path="url(#drakmora-erzkrieg-von-eron-gath-1526-1528)"><text class="item-label-small" x="674.5" y="853.1"><tspan x="674.5" dy="0">Erzkrieg</tspan></text></g><clipPath id="drakmora-reiterkriege-der-nebelsteppe-1740-1755"><rect x="670.5" y="967.2" width="62.5" height="14.0" rx="6" ry="6"/></clipPath><rect x="668.5" y="965.2" width="66.5" height="18.0" fill="#c27d69" stroke="#5b1f1f" stroke-width="1.8" stroke-dasharray="6 3" rx="7" ry="7"/><g clip-path="url(#drakmora-reiterkriege-der-nebelsteppe-1740-1755)"><text class="item-label-small" x="674.5" y="977.2"><tspan x="674.5" dy="0">Reiterkriege</tspan></text></g><line x1="763.0" y1="247.7" x2="906.0" y2="247.7" stroke="#2f8a7f" stroke-width="3" stroke-dasharray="8 5"/><rect x="765.0" y="232.7" width="139.0" height="18" fill="#fbf8f1" stroke="#2f8a7f" stroke-width="1" rx="8" ry="8"/><text class="item-label-dark-small" x="773.0" y="244.7"><tspan x="773.0" dy="0">Gruendung Mariven</tspan></text><clipPath id="mariven-lureano-vintar-503-547"><rect x="763.0" y="249.7" width="62.5" height="22.1" rx="6" ry="6"/></clipPath><rect x="761.0" y="247.7" width="66.5" height="26.1" fill="#2f8a7f" stroke="#2f2822" stroke-width="0.8" rx="7" ry="7"/><g clip-path="url(#mariven-lureano-vintar-503-547)"><text class="item-label-small" x="767.0" y="259.7"><tspan x="767.0" dy="0">Lureano Vintar</tspan></text></g><clipPath id="mariven-vennira-cassalay-547-603"><rect x="763.0" y="275.3" width="62.5" height="29.1" rx="6" ry="6"/></clipPath><rect x="761.0" y="273.3" width="66.5" height="33.1" fill="#2f8a7f" stroke="#2f2822" stroke-width="0.8" rx="7" ry="7"/><g clip-path="url(#mariven-vennira-cassalay-547-603)"><text class="item-label" x="767.0" y="285.3"><tspan x="767.0" dy="0">Vennira Cassalay</tspan></text></g><clipPath id="mariven-domerr-talzo-603-685"><rect x="763.0" y="307.7" width="62.5" height="44.1" rx="6" ry="6"/></clipPath><rect x="761.0" y="305.7" width="66.5" height="48.1" fill="#2f8a7f" stroke="#2f2822" stroke-width="0.8" rx="7" ry="7"/><g clip-path="url(#mariven-domerr-talzo-603-685)"><text class="item-label" x="767.0" y="317.7"><tspan x="767.0" dy="0">Domerr Talzo</tspan><tspan x="767.0" dy="11">603-685</tspan></text></g><clipPath id="mariven-yllian-marris-685-750"><rect x="763.0" y="355.3" width="62.5" height="34.3" rx="6" ry="6"/></clipPath><rect x="761.0" y="353.3" width="66.5" height="38.3" fill="#2f8a7f" stroke="#2f2822" stroke-width="0.8" rx="7" ry="7"/><g clip-path="url(#mariven-yllian-marris-685-750)"><text class="item-label" x="767.0" y="365.3"><tspan x="767.0" dy="0">Yllian Marris</tspan></text></g><clipPath id="mariven-faelyn-niros-750-912"><rect x="763.0" y="393.0" width="62.5" height="90.5" rx="6" ry="6"/></clipPath><rect x="761.0" y="391.0" width="66.5" height="94.5" fill="#2f8a7f" stroke="#2f2822" stroke-width="0.8" rx="7" ry="7"/><g clip-path="url(#mariven-faelyn-niros-750-912)"><text class="item-label" x="767.0" y="403.0"><tspan x="767.0" dy="0">Faelyn Niros</tspan><tspan x="767.0" dy="11">750-912</tspan></text></g><clipPath id="mariven-perrik-grahm-912-983"><rect x="763.0" y="487.0" width="62.5" height="37.8" rx="6" ry="6"/></clipPath><rect x="761.0" y="485.0" width="66.5" height="41.8" fill="#2f8a7f" stroke="#2f2822" stroke-width="0.8" rx="7" ry="7"/><g clip-path="url(#mariven-perrik-grahm-912-983)"><text class="item-label" x="767.0" y="497.0"><tspan x="767.0" dy="0">Perrik Grahm</tspan></text></g><clipPath id="mariven-celetha-vintar-ii-983-1036"><rect x="763.0" y="528.1" width="62.5" height="27.3" rx="6" ry="6"/></clipPath><rect x="761.0" y="526.1" width="66.5" height="31.3" fill="#2f8a7f" stroke="#2f2822" stroke-width="0.8" rx="7" ry="7"/><g clip-path="url(#mariven-celetha-vintar-ii-983-1036)"><text class="item-label" x="767.0" y="538.1"><tspan x="767.0" dy="0">Celetha</tspan><tspan x="767.0" dy="11">Vintar II</tspan></text></g><clipPath id="mariven-zordak-eisenbei-1036-1121"><rect x="763.0" y="558.9" width="62.5" height="45.9" rx="6" ry="6"/></clipPath><rect x="761.0" y="556.9" width="66.5" height="49.9" fill="#2f8a7f" stroke="#2f2822" stroke-width="0.8" rx="7" ry="7"/><g clip-path="url(#mariven-zordak-eisenbei-1036-1121)"><text class="item-label" x="767.0" y="568.9"><tspan x="767.0" dy="0">Zordak Eisenbeiß</tspan><tspan x="767.0" dy="11">1036-1121</tspan></text></g><clipPath id="mariven-aerinelle-vellora-1121-1399"><rect x="763.0" y="608.2" width="62.5" height="157.8" rx="6" ry="6"/></clipPath><rect x="761.0" y="606.2" width="66.5" height="161.8" fill="#2f8a7f" stroke="#2f2822" stroke-width="0.8" rx="7" ry="7"/><g clip-path="url(#mariven-aerinelle-vellora-1121-1399)"><text class="item-label" x="767.0" y="618.2"><tspan x="767.0" dy="0">Aerinelle Vellora</tspan><tspan x="767.0" dy="11">1121-1399</tspan></text></g><clipPath id="mariven-candamir-silberhand-1399-1623"><rect x="763.0" y="769.4" width="62.5" height="126.5" rx="6" ry="6"/></clipPath><rect x="761.0" y="767.4" width="66.5" height="130.5" fill="#2f8a7f" stroke="#2f2822" stroke-width="0.8" rx="7" ry="7"/><g clip-path="url(#mariven-candamir-silberhand-1399-1623)"><text class="item-label" x="767.0" y="779.4"><tspan x="767.0" dy="0">Candamir Silberhand</tspan><tspan x="767.0" dy="11">1399-1623</tspan></text></g><clipPath id="mariven-marcellus-daevorn-1623-1664"><rect x="763.0" y="899.3" width="62.5" height="20.4" rx="6" ry="6"/></clipPath><rect x="761.0" y="897.3" width="66.5" height="24.4" fill="#2f8a7f" stroke="#2f2822" stroke-width="0.8" rx="7" ry="7"/><g clip-path="url(#mariven-marcellus-daevorn-1623-1664)"><text class="item-label-small" x="767.0" y="909.3"><tspan x="767.0" dy="0">Marcellus Daevorn</tspan></text></g><clipPath id="mariven-vanya-cerelin-1664-1886"><rect x="763.0" y="923.1" width="62.5" height="125.3" rx="6" ry="6"/></clipPath><rect x="761.0" y="921.1" width="66.5" height="129.3" fill="#2f8a7f" stroke="#2f2822" stroke-width="0.8" rx="7" ry="7"/><g clip-path="url(#mariven-vanya-cerelin-1664-1886)"><text class="item-label" x="767.0" y="933.1"><tspan x="767.0" dy="0">Vanya Cerelin</tspan><tspan x="767.0" dy="11">1664-1886</tspan></text></g><clipPath id="mariven-halren-marris-ii-1886-1912"><rect x="763.0" y="1051.9" width="62.5" height="14.0" rx="6" ry="6"/></clipPath><rect x="761.0" y="1049.9" width="66.5" height="18.0" fill="#2f8a7f" stroke="#2f2822" stroke-width="0.8" rx="7" ry="7"/><g clip-path="url(#mariven-halren-marris-ii-1886-1912)"><text class="item-label-small" x="767.0" y="1061.9"><tspan x="767.0" dy="0">Halren</tspan></text></g><clipPath id="mariven-orryn-talzo-ii-1912-1971"><rect x="763.0" y="1067.0" width="62.5" height="30.8" rx="6" ry="6"/></clipPath><rect x="761.0" y="1065.0" width="66.5" height="34.8" fill="#2f8a7f" stroke="#2f2822" stroke-width="0.8" rx="7" ry="7"/><g clip-path="url(#mariven-orryn-talzo-ii-1912-1971)"><text class="item-label" x="767.0" y="1077.0"><tspan x="767.0" dy="0">Orryn</tspan><tspan x="767.0" dy="11">Talzo II</tspan></text></g><clipPath id="mariven-zallion-vintar-iii-1971-2030"><rect x="763.0" y="1101.2" width="62.5" height="30.8" rx="6" ry="6"/></clipPath><rect x="761.0" y="1099.2" width="66.5" height="34.8" fill="#2f8a7f" stroke="#2f2822" stroke-width="0.8" rx="7" ry="7"/><g clip-path="url(#mariven-zallion-vintar-iii-1971-2030)"><text class="item-label" x="767.0" y="1111.2"><tspan x="767.0" dy="0">Zallion</tspan><tspan x="767.0" dy="11">Vintar III</tspan></text></g><clipPath id="mariven-aelaria-talzo-2030-2158"><rect x="763.0" y="1135.4" width="62.5" height="70.8" rx="6" ry="6"/></clipPath><rect x="761.0" y="1133.4" width="66.5" height="74.8" fill="#2f8a7f" stroke="#2f2822" stroke-width="0.8" rx="7" ry="7"/><g clip-path="url(#mariven-aelaria-talzo-2030-2158)"><text class="item-label" x="767.0" y="1145.4"><tspan x="767.0" dy="0">Aelaria Talzo</tspan><tspan x="767.0" dy="11">2030-2158</tspan></text></g><clipPath id="mariven-elim-marthus-2158-2245"><rect x="763.0" y="1209.6" width="62.5" height="47.0" rx="6" ry="6"/></clipPath><rect x="761.0" y="1207.6" width="66.5" height="51.0" fill="#2f8a7f" stroke="#2f2822" stroke-width="0.8" rx="7" ry="7"/><g clip-path="url(#mariven-elim-marthus-2158-2245)"><text class="item-label" x="767.0" y="1219.6"><tspan x="767.0" dy="0">Elim Marthus</tspan><tspan x="767.0" dy="11">2158-2245</tspan></text></g><clipPath id="mariven-irion-cassalay-ii-2245-2456"><rect x="763.0" y="1260.1" width="62.5" height="119.0" rx="6" ry="6"/></clipPath><rect x="761.0" y="1258.1" width="66.5" height="123.0" fill="#2f8a7f" stroke="#2f2822" stroke-width="0.8" rx="7" ry="7"/><g clip-path="url(#mariven-irion-cassalay-ii-2245-2456)"><text class="item-label" x="767.0" y="1270.1"><tspan x="767.0" dy="0">Irion</tspan><tspan x="767.0" dy="11">Cassalay II</tspan><tspan x="767.0" dy="11">2245-2456</tspan></text></g><clipPath id="mariven-lyssander-valera-2456-2486"><rect x="763.0" y="1382.5" width="62.5" height="14.0" rx="6" ry="6"/></clipPath><rect x="761.0" y="1380.5" width="66.5" height="18.0" fill="#2f8a7f" stroke="#2f2822" stroke-width="0.8" rx="7" ry="7"/><g clip-path="url(#mariven-lyssander-valera-2456-2486)"><text class="item-label-small" x="767.0" y="1392.5"><tspan x="767.0" dy="0">Lyssander Valera</tspan></text></g><clipPath id="mariven-baraberen-berf-lle-von-mariven-1236-1387"><rect x="843.5" y="674.9" width="62.5" height="84.2" rx="6" ry="6"/></clipPath><rect x="841.5" y="672.9" width="66.5" height="88.2" fill="#59a199" stroke="#2f2822" stroke-width="0.8" rx="7" ry="7"/><g clip-path="url(#mariven-baraberen-berf-lle-von-mariven-1236-1387)"><text class="item-label" x="847.5" y="684.9"><tspan x="847.5" dy="0">Baraberenüberfälle</tspan><tspan x="847.5" dy="11">von Mariven</tspan><tspan x="847.5" dy="11">1236-1387</tspan></text></g><clipPath id="mariven-muschelkrieg-1401-1402"><rect x="843.5" y="770.6" width="62.5" height="14.0" rx="6" ry="6"/></clipPath><rect x="841.5" y="768.6" width="66.5" height="18.0" fill="#59a199" stroke="#5b1f1f" stroke-width="1.8" stroke-dasharray="6 3" rx="7" ry="7"/><g clip-path="url(#mariven-muschelkrieg-1401-1402)"><text class="item-label-small" x="847.5" y="780.6"><tspan x="847.5" dy="0">Muschelkrieg</tspan></text></g><clipPath id="mariven-runenbann-konflikt-1603-1611"><rect x="843.5" y="887.7" width="62.5" height="14.0" rx="6" ry="6"/></clipPath><rect x="841.5" y="885.7" width="66.5" height="18.0" fill="#59a199" stroke="#5b1f1f" stroke-width="1.8" stroke-dasharray="6 3" rx="7" ry="7"/><g clip-path="url(#mariven-runenbann-konflikt-1603-1611)"><text class="item-label-small" x="847.5" y="897.7"><tspan x="847.5" dy="0">Runenbann-Konflikt</tspan></text></g><line x1="936.0" y1="146.2" x2="1079.0" y2="146.2" stroke="#4f5563" stroke-width="3" stroke-dasharray="8 5"/><rect x="938.0" y="131.2" width="139.0" height="18" fill="#fbf8f1" stroke="#4f5563" stroke-width="1" rx="8" ry="8"/><text class="item-label-dark-small" x="946.0" y="143.2"><tspan x="946.0" dy="0">Gruendung Schwarzklamm</tspan></text><clipPath id="schwarzklamm-durim-felsenherz-2058-2319"><rect x="936.0" y="1151.6" width="62.5" height="148.0" rx="6" ry="6"/></clipPath><rect x="934.0" y="1149.6" width="66.5" height="152.0" fill="#4f5563" stroke="#2f2822" stroke-width="0.8" rx="7" ry="7"/><g clip-path="url(#schwarzklamm-durim-felsenherz-2058-2319)"><text class="item-label" x="940.0" y="1161.6"><tspan x="940.0" dy="0">Durim Felsenherz</tspan><tspan x="940.0" dy="11">2058-2319</tspan></text></g><clipPath id="schwarzklamm-durngar-schwarzschild-2410-2486"><rect x="936.0" y="1355.8" width="62.5" height="40.7" rx="6" ry="6"/></clipPath><rect x="934.0" y="1353.8" width="66.5" height="44.7" fill="#4f5563" stroke="#2f2822" stroke-width="0.8" rx="7" ry="7"/><g clip-path="url(#schwarzklamm-durngar-schwarzschild-2410-2486)"><text class="item-label" x="940.0" y="1365.8"><tspan x="940.0" dy="0">Durngar Schwarzschild</tspan><tspan x="940.0" dy="11">2410-2486</tspan></text></g><polygon points="1047.8,136.2 1057.8,146.2 1047.8,156.2 1037.8,146.2" fill="#727782" stroke="#2f2822" stroke-width="1"/><line class="point-line" x1="1047.8" y1="156.2" x2="1047.8" y2="174.2"/><text class="item-label-dark" x="1051.8" y="170.2"><tspan x="1051.8" dy="0">Bardum Eisenklang</tspan></text><clipPath id="schwarzklamm-erzkrieg-von-eron-gath-1526-1528"><rect x="1016.5" y="843.1" width="62.5" height="14.0" rx="6" ry="6"/></clipPath><rect x="1014.5" y="841.1" width="66.5" height="18.0" fill="#727782" stroke="#5b1f1f" stroke-width="1.8" stroke-dasharray="6 3" rx="7" ry="7"/><g clip-path="url(#schwarzklamm-erzkrieg-von-eron-gath-1526-1528)"><text class="item-label-small" x="1020.5" y="853.1"><tspan x="1020.5" dy="0">Erzkrieg</tspan></text></g><polygon points="1047.8,930.8 1057.8,940.8 1047.8,950.8 1037.8,940.8" fill="#727782" stroke="#2f2822" stroke-width="1"/><line class="point-line" x1="1047.8" y1="950.8" x2="1047.8" y2="968.8"/><text class="item-label-dark" x="1051.8" y="964.8"><tspan x="1051.8" dy="0">Die Erschütterung</tspan><tspan x="1051.8" dy="11">der Tiefe</tspan></text><polygon points="1047.8,1200.5 1057.8,1210.5 1047.8,1220.5 1037.8,1210.5" fill="#727782" stroke="#2f2822" stroke-width="1"/><line class="point-line" x1="1047.8" y1="1220.5" x2="1047.8" y2="1238.5"/><text class="item-label-dark" x="1051.8" y="1234.5"><tspan x="1051.8" dy="0">Die Feuertaufe</tspan><tspan x="1051.8" dy="11">von Kar'drathar</tspan></text><clipPath id="schwarzklamm-krieg-der-kl-fte-2319-2410"><rect x="1016.5" y="1303.0" width="62.5" height="49.4" rx="6" ry="6"/></clipPath><rect x="1014.5" y="1301.0" width="66.5" height="53.4" fill="#727782" stroke="#5b1f1f" stroke-width="1.8" stroke-dasharray="6 3" rx="7" ry="7"/><g clip-path="url(#schwarzklamm-krieg-der-kl-fte-2319-2410)"><text class="item-label" x="1020.5" y="1313.0"><tspan x="1020.5" dy="0">Krieg</tspan><tspan x="1020.5" dy="11">der Klüfte</tspan><tspan x="1020.5" dy="11">2319-2410</tspan></text></g><clipPath id="schwarzklamm-zeitalter-des-schildes-2410-2486"><rect x="1016.5" y="1355.8" width="62.5" height="40.7" rx="6" ry="6"/></clipPath><rect x="1014.5" y="1353.8" width="66.5" height="44.7" fill="#727782" stroke="#2f2822" stroke-width="0.8" rx="7" ry="7"/><g clip-path="url(#schwarzklamm-zeitalter-des-schildes-2410-2486)"><text class="item-label" x="1020.5" y="1365.8"><tspan x="1020.5" dy="0">Zeitalter</tspan><tspan x="1020.5" dy="11">des Schildes</tspan><tspan x="1020.5" dy="11">2410-2486</tspan></text></g><line x1="1109.0" y1="211.8" x2="1252.0" y2="211.8" stroke="#5f83b0" stroke-width="3" stroke-dasharray="8 5"/><rect x="1111.0" y="196.8" width="139.0" height="18" fill="#fbf8f1" stroke="#5f83b0" stroke-width="1" rx="8" ry="8"/><text class="item-label-dark-small" x="1119.0" y="208.8"><tspan x="1119.0" dy="0">Gruendung Vaylen</tspan></text><clipPath id="vaylen-seralyss-drachenruf-441-1219"><rect x="1109.0" y="213.8" width="62.5" height="447.8" rx="6" ry="6"/></clipPath><rect x="1107.0" y="211.8" width="66.5" height="451.8" fill="#5f83b0" stroke="#2f2822" stroke-width="0.8" rx="7" ry="7"/><g clip-path="url(#vaylen-seralyss-drachenruf-441-1219)"><text class="item-label" x="1113.0" y="223.8"><tspan x="1113.0" dy="0">Seralyss Drachenruf</tspan><tspan x="1113.0" dy="11">441-1219</tspan></text></g><clipPath id="vaylen-saelarion-drachenruf-1219-1542"><rect x="1109.0" y="665.0" width="62.5" height="183.9" rx="6" ry="6"/></clipPath><rect x="1107.0" y="663.0" width="66.5" height="187.9" fill="#5f83b0" stroke="#2f2822" stroke-width="0.8" rx="7" ry="7"/><g clip-path="url(#vaylen-saelarion-drachenruf-1219-1542)"><text class="item-label" x="1113.0" y="675.0"><tspan x="1113.0" dy="0">Saelarion Drachenruf</tspan><tspan x="1113.0" dy="11">1219-1542</tspan></text></g><clipPath id="vaylen-solarys-drachenruf-1542-1872"><rect x="1109.0" y="852.4" width="62.5" height="188.0" rx="6" ry="6"/></clipPath><rect x="1107.0" y="850.4" width="66.5" height="192.0" fill="#5f83b0" stroke="#2f2822" stroke-width="0.8" rx="7" ry="7"/><g clip-path="url(#vaylen-solarys-drachenruf-1542-1872)"><text class="item-label" x="1113.0" y="862.4"><tspan x="1113.0" dy="0">Solarys Drachenruf</tspan><tspan x="1113.0" dy="11">1542-1872</tspan></text></g><clipPath id="vaylen-syrell-drachenruf-1872-2153"><rect x="1109.0" y="1043.8" width="62.5" height="159.6" rx="6" ry="6"/></clipPath><rect x="1107.0" y="1041.8" width="66.5" height="163.6" fill="#5f83b0" stroke="#2f2822" stroke-width="0.8" rx="7" ry="7"/><g clip-path="url(#vaylen-syrell-drachenruf-1872-2153)"><text class="item-label" x="1113.0" y="1053.8"><tspan x="1113.0" dy="0">Syrell Drachenruf</tspan><tspan x="1113.0" dy="11">1872-2153</tspan></text></g><clipPath id="vaylen-selene-drachenruf-2153-2486"><rect x="1109.0" y="1206.7" width="62.5" height="189.7" rx="6" ry="6"/></clipPath><rect x="1107.0" y="1204.7" width="66.5" height="193.7" fill="#5f83b0" stroke="#2f2822" stroke-width="0.8" rx="7" ry="7"/><g clip-path="url(#vaylen-selene-drachenruf-2153-2486)"><text class="item-label" x="1113.0" y="1216.7"><tspan x="1113.0" dy="0">Selene Drachenruf</tspan><tspan x="1113.0" dy="11">2153-2486</tspan></text></g><clipPath id="vaylen-runenbann-konflikt-1603-1611"><rect x="1189.5" y="887.7" width="62.5" height="14.0" rx="6" ry="6"/></clipPath><rect x="1187.5" y="885.7" width="66.5" height="18.0" fill="#7f9cc0" stroke="#5b1f1f" stroke-width="1.8" stroke-dasharray="6 3" rx="7" ry="7"/><g clip-path="url(#vaylen-runenbann-konflikt-1603-1611)"><text class="item-label-small" x="1193.5" y="897.7"><tspan x="1193.5" dy="0">Runenbann-Konflikt</tspan></text></g><clipPath id="vaylen-reiterkriege-der-nebelsteppe-1740-1755"><rect x="1189.5" y="967.2" width="62.5" height="14.0" rx="6" ry="6"/></clipPath><rect x="1187.5" y="965.2" width="66.5" height="18.0" fill="#7f9cc0" stroke="#5b1f1f" stroke-width="1.8" stroke-dasharray="6 3" rx="7" ry="7"/><g clip-path="url(#vaylen-reiterkriege-der-nebelsteppe-1740-1755)"><text class="item-label-small" x="1193.5" y="977.2"><tspan x="1193.5" dy="0">Reiterkriege</tspan></text></g></svg>