<svg xmlns="http://www.w3.org/2000/svg" width="794" height="1459" viewBox="0 0 794 1459" role="img" aria-labelledby="title desc"><title id="title">Drakmora: Chronik des Fürstentums</title><desc id="desc">Geschichte des Fürstentums Drakmora</desc><style>.title{font:700 24px Georgia, serif;fill:#1f1a16;}.subtitle{font:400 13px Georgia, serif;fill:#5a4f45;}.axis-label{font:600 11px Arial, sans-serif;fill:#5b5248;}.year-label{font:600 10px Arial, sans-serif;fill:#6a6158;}.column-label{font:700 12px Arial, sans-serif;fill:#201b17;}.item-label{font:600 10px Arial, sans-serif;fill:#ffffff;}.item-label-small{font:600 8.5px Arial, sans-serif;fill:#ffffff;}.item-label-dark{font:600 10px Arial, sans-serif;fill:#2c241d;}.item-label-dark-small{font:600 8.5px Arial, sans-serif;fill:#2c241d;}.lane-divider{stroke:#ffffff;stroke-width:1;opacity:0.7;}.column-border{stroke:#938778;stroke-width:1.2;fill:none;}.year-grid{stroke:#d8cec0;stroke-width:1;}.era-line{stroke:#b8ab98;stroke-width:1.2;stroke-dasharray:5 4;}.point-line{stroke:#3a3129;stroke-width:1.4;}</style><text class="title" x="100" y="42">Drakmora: Chronik des Fürstentums</text><text class="subtitle" x="100" y="66">Geschichte des Fürstentums Drakmora</text><rect x="100" y="130.0" width="654" height="540.0" fill="#f7f1df" opacity="0.45"/><text class="axis-label" x="106" y="144.0">Erstes Zeitalter</text><line class="era-line" x1="100" y1="130.0" x2="754" y2="130.0"/><rect x="100" y="670.0" width="654" height="541.7" fill="#efe6d2" opacity="0.45"/><text class="axis-label" x="106" y="684.0">Zweites Zeitalter</text><line class="era-line" x1="100" y1="670.0" x2="754" y2="670.0"/><rect x="100" y="1211.7" width="654" height="186.8" fill="#e8ddca" opacity="0.45"/><text class="axis-label" x="106" y="1225.7">Drittes Zeitalter</text><line class="era-line" x1="100" y1="1211.7" x2="754" y2="1211.7"/><line class="year-grid" x1="100" y1="130.0" x2="754" y2="130.0"/><text class="year-label" x="88" y="134.0" text-anchor="end">300</text><line class="year-grid" x1="100" y1="188.0" x2="754" y2="188.0"/><text class="year-label" x="88" y="192.0" text-anchor="end">400</text><line class="year-grid" x1="100" y1="246.0" x2="754" y2="246.0"/><text class="year-label" x="88" y="250.0" text-anchor="end">500</text><line class="year-grid" x1="100" y1="304.0" x2="754" y2="304.0"/><text class="year-label" x="88" y="308.0" text-anchor="end">600</text><line class="year-grid" x1="100" y1="362.0" x2="754" y2="362.0"/><text class="year-label" x="88" y="366.0" text-anchor="end">700</text><line class="year-grid" x1="100" y1="420.0" x2="754" y2="420.0"/><text class="year-label" x="88" y="424.0" text-anchor="end">800</text><line class="year-grid" x1="100" y1="478.0" x2="754" y2="478.0"/><text class="year-label" x="88" y="482.0" text-anchor="end">900</text><line class="year-grid" x1="100" y1="536.0" x2="754" y2="536.0"/><text class="year-label" x="88" y="540.0" text-anchor="end">1000</text><line class="year-grid" x1="100" y1="594.0" x2="754" y2="594.0"/><text class="year-label" x="88" y="598.0" text-anchor="end">1100</text><line class="year-grid" x1="100" y1="652.0" x2="754" y2="652.0"/><text class="year-label" x="88" y="656.0" text-anchor="end">1200</text><line class="year-grid" x1="100" y1="710.0" x2="754" y2="710.0"/><text class="year-label" x="88" y="714.0" text-anchor="end">1300</text><line class="year-grid" x1="100" y1="768.0" x2="754" y2="768.0"/><text class="year-label" x="88" y="772.0" text-anchor="end">1400</text><line class="year-grid" x1="100" y1="826.0" x2="754" y2="826.0"/><text class="year-label" x="88" y="830.0" text-anchor="end">1500</text><line class="year-grid" x1="100" y1="884.0" x2="754" y2="884.0"/><text class="year-label" x="88" y="888.0" text-anchor="end">1600</text><line class="year-grid" x1="100" y1="942.0" x2="754" y2="942.0"/><text class="year-label" x="88" y="946.0" text-anchor="end">1700</text><line class="year-grid" x1="100" y1="1000.0" x2="754" y2="1000.0"/><text class="year-label" x="88" y="1004.0" text-anchor="end">1800</text><line class="year-grid" x1="100" y1="1058.0" x2="754" y2="1058.0"/><text class="year-label" x="88" y="1062.0" text-anchor="end">1900</text><line class="year-grid" x1="100" y1="1116.0" x2="754" y2="1116.0"/><text class="year-label" x="88" y="1120.0" text-anchor="end">2000</text><line class="year-grid" x1="100" y1="1174.0" x2="754" y2="1174.0"/><text class="year-label" x="88" y="1178.0" text-anchor="end">2100</text><line class="year-grid" x1="100" y1="1232.0" x2="754" y2="1232.0"/><text class="year-label" x="88" y="1236.0" text-anchor="end">2200</text><line class="year-grid" x1="100" y1="1290.0" x2="754" y2="1290.0"/><text class="year-label" x="88" y="1294.0" text-anchor="end">2300</text><line class="year-grid" x1="100" y1="1348.0" x2="754" y2="1348.0"/><text class="year-label" x="88" y="1352.0" text-anchor="end">2400</text><rect x="100" y="130" width="120" height="1269" fill="rgba(216, 195, 143, 0.08)"/><rect class="column-border" x="100" y="130" width="120" height="1269"/><rect x="100" y="88" width="120" height="42" fill="#d8c38f" rx="8" ry="8"/><text class="column-label" x="160.0" y="113.0" text-anchor="middle">Zeit</text><line class="lane-divider" x1="160.0" y1="130" x2="160.0" y2="1399"/><rect x="238" y="130" width="170" height="1269" fill="rgba(179, 92, 68, 0.08)"/><rect class="column-border" x="238" y="130" width="170" height="1269"/><rect x="238" y="88" width="170" height="42" fill="#b35c44" rx="8" ry="8"/><text class="column-label" x="323.0" y="113.0" text-anchor="middle">Drakmora Fürsten</text><rect x="426" y="130" width="155" height="1269" fill="rgba(185, 105, 83, 0.08)"/><rect class="column-border" x="426" y="130" width="155" height="1269"/><rect x="426" y="88" width="155" height="42" fill="#b96953" rx="8" ry="8"/><text class="column-label" x="503.5" y="113.0" text-anchor="middle">Drakmora Zeitspannen</text><rect x="599" y="130" width="155" height="1269" fill="rgba(191, 118, 98, 0.08)"/><rect class="column-border" x="599" y="130" width="155" height="1269"/><rect x="599" y="88" width="155" height="42" fill="#bf7662" rx="8" ry="8"/><text class="column-label" x="676.5" y="113.0" text-anchor="middle">Drakmora Zeitpunkte</text><clipPath id="world-erstes-zeitalter-300-1230"><rect x="106.0" y="132.0" width="45.0" height="536.0" rx="6" ry="6"/></clipPath><rect x="104.0" y="130.0" width="49.0" height="540.0" fill="#e7d9b6" stroke="#2f2822" stroke-width="0.8" rx="7" ry="7"/><g clip-path="url(#world-erstes-zeitalter-300-1230)"><text class="item-label-dark" text-anchor="middle" transform="translate(128.5 396.0) rotate(-90)"><tspan x="0" dy="0">Erstes Zeitalter</tspan></text></g><clipPath id="world-zweites-zeitalter-1231-2164"><rect x="106.0" y="672.0" width="45.0" height="537.7" rx="6" ry="6"/></clipPath><rect x="104.0" y="670.0" width="49.0" height="541.7" fill="#dcc8a0" stroke="#2f2822" stroke-width="0.8" rx="7" ry="7"/><g clip-path="url(#world-zweites-zeitalter-1231-2164)"><text class="item-label-dark" text-anchor="middle" transform="translate(128.5 936.8) rotate(-90)"><tspan x="0" dy="0">Zweites Zeitalter</tspan></text></g><clipPath id="world-drittes-zeitalter-2165-2486"><rect x="106.0" y="1213.7" width="45.0" height="182.8" rx="6" ry="6"/></clipPath><rect x="104.0" y="1211.7" width="49.0" height="186.8" fill="#cfb27d" stroke="#2f2822" stroke-width="0.8" rx="7" ry="7"/><g clip-path="url(#world-drittes-zeitalter-2165-2486)"><text class="item-label-dark" text-anchor="middle" transform="translate(128.5 1301.1) rotate(-90)"><tspan x="0" dy="0">Drittes Zeitalter</tspan></text></g><line x1="244.0" y1="309.8" x2="402.0" y2="309.8" stroke="#b35c44" stroke-width="3" stroke-dasharray="8 5"/><rect x="246.0" y="294.8" width="154.0" height="18" fill="#fbf8f1" stroke="#b35c44" stroke-width="1" rx="8" ry="8"/><text class="item-label-dark-small" x="254.0" y="306.8"><tspan x="254.0" dy="0">Gruendung Drakmora</tspan></text><clipPath id="drakmora-rulers-brogorn-klingenzorn-610-688"><rect x="244.0" y="311.8" width="158.0" height="41.8" rx="6" ry="6"/></clipPath><rect x="242.0" y="309.8" width="162.0" height="45.8" fill="#b35c44" stroke="#2f2822" stroke-width="0.8" rx="7" ry="7"/><g clip-path="url(#drakmora-rulers-brogorn-klingenzorn-610-688)"><text class="item-label" x="248.0" y="321.8"><tspan x="248.0" dy="0">Brogorn Klingenzorn</tspan><tspan x="248.0" dy="11">610-688</tspan></text></g><clipPath id="drakmora-rulers-khara-eisenblick-688-721"><rect x="244.0" y="357.0" width="158.0" height="15.7" rx="6" ry="6"/></clipPath><rect x="242.0" y="355.0" width="162.0" height="19.7" fill="#b35c44" stroke="#2f2822" stroke-width="0.8" rx="7" ry="7"/><g clip-path="url(#drakmora-rulers-khara-eisenblick-688-721)"><text class="item-label-small" x="248.0" y="367.0"><tspan x="248.0" dy="0">Khara Eisenblick</tspan></text></g><clipPath id="drakmora-rulers-uldak-schmetterschlag-721-790"><rect x="244.0" y="376.2" width="158.0" height="36.6" rx="6" ry="6"/></clipPath><rect x="242.0" y="374.2" width="162.0" height="40.6" fill="#b35c44" stroke="#2f2822" stroke-width="0.8" rx="7" ry="7"/><g clip-path="url(#drakmora-rulers-uldak-schmetterschlag-721-790)"><text class="item-label" x="248.0" y="386.2"><tspan x="248.0" dy="0">Uldak Schmetterschlag</tspan></text></g><clipPath id="drakmora-rulers-harnak-blutgeboren-853-910"><rect x="244.0" y="452.7" width="158.0" height="29.6" rx="6" ry="6"/></clipPath><rect x="242.0" y="450.7" width="162.0" height="33.6" fill="#b35c44" stroke="#2f2822" stroke-width="0.8" rx="7" ry="7"/><g clip-path="url(#drakmora-rulers-harnak-blutgeboren-853-910)"><text class="item-label" x="248.0" y="462.7"><tspan x="248.0" dy="0">Harnak Blutgeboren</tspan></text></g><clipPath id="drakmora-rulers-rogda-speerflamme-910-1002"><rect x="244.0" y="485.8" width="158.0" height="49.9" rx="6" ry="6"/></clipPath><rect x="242.0" y="483.8" width="162.0" height="53.9" fill="#b35c44" stroke="#2f2822" stroke-width="0.8" rx="7" ry="7"/><g clip-path="url(#drakmora-rulers-rogda-speerflamme-910-1002)"><text class="item-label" x="248.0" y="495.8"><tspan x="248.0" dy="0">Rogda Speerflamme</tspan><tspan x="248.0" dy="11">910-1002</tspan></text></g><clipPath id="drakmora-rulers-durvak-grimmhammer-1002-1230"><rect x="244.0" y="539.2" width="158.0" height="128.8" rx="6" ry="6"/></clipPath><rect x="242.0" y="537.2" width="162.0" height="132.8" fill="#b35c44" stroke="#2f2822" stroke-width="0.8" rx="7" ry="7"/><g clip-path="url(#drakmora-rulers-durvak-grimmhammer-1002-1230)"><text class="item-label" x="248.0" y="549.2"><tspan x="248.0" dy="0">Durvak Grimmhammer</tspan><tspan x="248.0" dy="11">1002-1230</tspan></text></g><clipPath id="drakmora-rulers-marthok-goldschild-1231-1284"><rect x="244.0" y="672.0" width="158.0" height="27.3" rx="6" ry="6"/></clipPath><rect x="242.0" y="670.0" width="162.0" height="31.3" fill="#b35c44" stroke="#2f2822" stroke-width="0.8" rx="7" ry="7"/><g clip-path="url(#drakmora-rulers-marthok-goldschild-1231-1284)"><text class="item-label" x="248.0" y="682.0"><tspan x="248.0" dy="0">Marthok Goldschild</tspan></text></g><clipPath id="drakmora-rulers-tyrak-der-wilde-1284-1332"><rect x="244.0" y="702.7" width="158.0" height="24.4" rx="6" ry="6"/></clipPath><rect x="242.0" y="700.7" width="162.0" height="28.4" fill="#b35c44" stroke="#2f2822" stroke-width="0.8" rx="7" ry="7"/><g clip-path="url(#drakmora-rulers-tyrak-der-wilde-1284-1332)"><text class="item-label" x="248.0" y="712.7"><tspan x="248.0" dy="0">Tyrak</tspan><tspan x="248.0" dy="11">der Wilde</tspan></text></g><clipPath id="drakmora-rulers-sigrid-eisenfaust-1332-1410"><rect x="244.0" y="730.6" width="158.0" height="41.8" rx="6" ry="6"/></clipPath><rect x="242.0" y="728.6" width="162.0" height="45.8" fill="#b35c44" stroke="#2f2822" stroke-width="0.8" rx="7" ry="7"/><g clip-path="url(#drakmora-rulers-sigrid-eisenfaust-1332-1410)"><text class="item-label" x="248.0" y="740.6"><tspan x="248.0" dy="0">Sigrid Eisenfaust</tspan><tspan x="248.0" dy="11">1332-1410</tspan></text></g><clipPath id="drakmora-rulers-varrun-brechmaul-1410-1527"><rect x="244.0" y="775.8" width="158.0" height="64.4" rx="6" ry="6"/></clipPath><rect x="242.0" y="773.8" width="162.0" height="68.4" fill="#b35c44" stroke="#2f2822" stroke-width="0.8" rx="7" ry="7"/><g clip-path="url(#drakmora-rulers-varrun-brechmaul-1410-1527)"><text class="item-label" x="248.0" y="785.8"><tspan x="248.0" dy="0">Varrun Brechmaul</tspan><tspan x="248.0" dy="11">1410-1527</tspan></text></g><clipPath id="drakmora-rulers-thorgim-donnerklinge-1527-1694"><rect x="244.0" y="843.7" width="158.0" height="93.4" rx="6" ry="6"/></clipPath><rect x="242.0" y="841.7" width="162.0" height="97.4" fill="#b35c44" stroke="#2f2822" stroke-width="0.8" rx="7" ry="7"/><g clip-path="url(#drakmora-rulers-thorgim-donnerklinge-1527-1694)"><text class="item-label" x="248.0" y="853.7"><tspan x="248.0" dy="0">Thorgim Donnerklinge</tspan><tspan x="248.0" dy="11">1527-1694</tspan></text></g><clipPath id="drakmora-rulers-karnok-splitterbart-1694-1790"><rect x="244.0" y="940.5" width="158.0" height="52.3" rx="6" ry="6"/></clipPath><rect x="242.0" y="938.5" width="162.0" height="56.3" fill="#b35c44" stroke="#2f2822" stroke-width="0.8" rx="7" ry="7"/><g clip-path="url(#drakmora-rulers-karnok-splitterbart-1694-1790)"><text class="item-label" x="248.0" y="950.5"><tspan x="248.0" dy="0">Karnok Splitterbart</tspan><tspan x="248.0" dy="11">1694-1790</tspan></text></g><clipPath id="drakmora-rulers-oghrim-der-alte-1790-1990"><rect x="244.0" y="996.2" width="158.0" height="112.6" rx="6" ry="6"/></clipPath><rect x="242.0" y="994.2" width="162.0" height="116.6" fill="#b35c44" stroke="#2f2822" stroke-width="0.8" rx="7" ry="7"/><g clip-path="url(#drakmora-rulers-oghrim-der-alte-1790-1990)"><text class="item-label" x="248.0" y="1006.2"><tspan x="248.0" dy="0">Oghrim</tspan><tspan x="248.0" dy="11">der Alte</tspan><tspan x="248.0" dy="11">1790-1990</tspan></text></g><clipPath id="drakmora-rulers-garrik-sturmherr-1990-2166"><rect x="244.0" y="1112.2" width="158.0" height="98.7" rx="6" ry="6"/></clipPath><rect x="242.0" y="1110.2" width="162.0" height="102.7" fill="#b35c44" stroke="#2f2822" stroke-width="0.8" rx="7" ry="7"/><g clip-path="url(#drakmora-rulers-garrik-sturmherr-1990-2166)"><text class="item-label" x="248.0" y="1122.2"><tspan x="248.0" dy="0">Garrik Sturmherr</tspan><tspan x="248.0" dy="11">1990-2166</tspan></text></g><clipPath id="drakmora-rulers-barag-steinhorn-2166-2233"><rect x="244.0" y="1214.3" width="158.0" height="35.4" rx="6" ry="6"/></clipPath><rect x="242.0" y="1212.3" width="162.0" height="39.4" fill="#b35c44" stroke="#2f2822" stroke-width="0.8" rx="7" ry="7"/><g clip-path="url(#drakmora-rulers-barag-steinhorn-2166-2233)"><text class="item-label" x="248.0" y="1224.3"><tspan x="248.0" dy="0">Barag Steinhorn</tspan></text></g><clipPath id="drakmora-rulers-torgak-eisenbrand-2233-2344"><rect x="244.0" y="1253.1" width="158.0" height="61.0" rx="6" ry="6"/></clipPath><rect x="242.0" y="1251.1" width="162.0" height="65.0" fill="#b35c44" stroke="#2f2822" stroke-width="0.8" rx="7" ry="7"/><g clip-path="url(#drakmora-rulers-torgak-eisenbrand-2233-2344)"><text class="item-label" x="248.0" y="1263.1"><tspan x="248.0" dy="0">Torgak Eisenbrand</tspan><tspan x="248.0" dy="11">2233-2344</tspan></text></g><clipPath id="drakmora-rulers-valaine-nebelhain-2344-2486"><rect x="244.0" y="1317.5" width="158.0" height="78.9" rx="6" ry="6"/></clipPath><rect x="242.0" y="1315.5" width="162.0" height="82.9" fill="#b35c44" stroke="#2f2822" stroke-width="0.8" rx="7" ry="7"/><g clip-path="url(#drakmora-rulers-valaine-nebelhain-2344-2486)"><text class="item-label" x="248.0" y="1327.5"><tspan x="248.0" dy="0">Valaine Nebelhain</tspan><tspan x="248.0" dy="11">2344-2486</tspan></text></g><clipPath id="drakmora-ranges-nord-s-d-konflikt-1304-1307"><rect x="432.0" y="714.3" width="143.0" height="14.0" rx="6" ry="6"/></clipPath><rect x="430.0" y="712.3" width="147.0" height="18.0" fill="#c27d69" stroke="#5b1f1f" stroke-width="1.8" stroke-dasharray="6 3" rx="7" ry="7"/><g clip-path="url(#drakmora-ranges-nord-s-d-konflikt-1304-1307)"><text class="item-label-small" x="436.0" y="724.3"><tspan x="436.0" dy="0">Nord-Süd-Konflikt</tspan></text></g><clipPath id="drakmora-ranges-erzkrieg-von-eron-gath-1526-1528"><rect x="432.0" y="843.1" width="143.0" height="14.0" rx="6" ry="6"/></clipPath><rect x="430.0" y="841.1" width="147.0" height="18.0" fill="#c27d69" stroke="#5b1f1f" stroke-width="1.8" stroke-dasharray="6 3" rx="7" ry="7"/><g clip-path="url(#drakmora-ranges-erzkrieg-von-eron-gath-1526-1528)"><text class="item-label-small" x="436.0" y="853.1"><tspan x="436.0" dy="0">Erzkrieg</tspan></text></g><clipPath id="drakmora-ranges-reiterkriege-der-nebelsteppe-1740-1755"><rect x="432.0" y="967.2" width="143.0" height="14.0" rx="6" ry="6"/></clipPath><rect x="430.0" y="965.2" width="147.0" height="18.0" fill="#c27d69" stroke="#5b1f1f" stroke-width="1.8" stroke-dasharray="6 3" rx="7" ry="7"/><g clip-path="url(#drakmora-ranges-reiterkriege-der-nebelsteppe-1740-1755)"><text class="item-label-small" x="436.0" y="977.2"><tspan x="436.0" dy="0">Reiterkriege</tspan></text></g></svg>