<svg xmlns="http://www.w3.org/2000/svg" width="794" height="1459" viewBox="0 0 794 1459" role="img" aria-labelledby="title desc"><title id="title">Elmrath: Chronik des Fürstentums</title><desc id="desc">Geschichte des Fürstentums Elmrath</desc><style>.title{font:700 24px Georgia, serif;fill:#1f1a16;}.subtitle{font:400 13px Georgia, serif;fill:#5a4f45;}.axis-label{font:600 11px Arial, sans-serif;fill:#5b5248;}.year-label{font:600 10px Arial, sans-serif;fill:#6a6158;}.column-label{font:700 12px Arial, sans-serif;fill:#201b17;}.item-label{font:600 10px Arial, sans-serif;fill:#ffffff;}.item-label-small{font:600 8.5px Arial, sans-serif;fill:#ffffff;}.item-label-dark{font:600 10px Arial, sans-serif;fill:#2c241d;}.item-label-dark-small{font:600 8.5px Arial, sans-serif;fill:#2c241d;}.lane-divider{stroke:#ffffff;stroke-width:1;opacity:0.7;}.column-border{stroke:#938778;stroke-width:1.2;fill:none;}.year-grid{stroke:#d8cec0;stroke-width:1;}.era-line{stroke:#b8ab98;stroke-width:1.2;stroke-dasharray:5 4;}.point-line{stroke:#3a3129;stroke-width:1.4;}</style><text class="title" x="100" y="42">Elmrath: Chronik des Fürstentums</text><text class="subtitle" x="100" y="66">Geschichte des Fürstentums Elmrath</text><rect x="100" y="130.0" width="654" height="540.0" fill="#f7f1df" opacity="0.45"/><text class="axis-label" x="106" y="144.0">Erstes Zeitalter</text><line class="era-line" x1="100" y1="130.0" x2="754" y2="130.0"/><rect x="100" y="670.0" width="654" height="541.7" fill="#efe6d2" opacity="0.45"/><text class="axis-label" x="106" y="684.0">Zweites Zeitalter</text><line class="era-line" x1="100" y1="670.0" x2="754" y2="670.0"/><rect x="100" y="1211.7" width="654" height="186.8" fill="#e8ddca" opacity="0.45"/><text class="axis-label" x="106" y="1225.7">Drittes Zeitalter</text><line class="era-line" x1="100" y1="1211.7" x2="754" y2="1211.7"/><line class="year-grid" x1="100" y1="130.0" x2="754" y2="130.0"/><text class="year-label" x="88" y="134.0" text-anchor="end">300</text><line class="year-grid" x1="100" y1="188.0" x2="754" y2="188.0"/><text class="year-label" x="88" y="192.0" text-anchor="end">400</text><line class="year-grid" x1="100" y1="246.0" x2="754" y2="246.0"/><text class="year-label" x="88" y="250.0" text-anchor="end">500</text><line class="year-grid" x1="100" y1="304.0" x2="754" y2="304.0"/><text class="year-label" x="88" y="308.0" text-anchor="end">600</text><line class="year-grid" x1="100" y1="362.0" x2="754" y2="362.0"/><text class="year-label" x="88" y="366.0" text-anchor="end">700</text><line class="year-grid" x1="100" y1="420.0" x2="754" y2="420.0"/><text class="year-label" x="88" y="424.0" text-anchor="end">800</text><line class="year-grid" x1="100" y1="478.0" x2="754" y2="478.0"/><text class="year-label" x="88" y="482.0" text-anchor="end">900</text><line class="year-grid" x1="100" y1="536.0" x2="754" y2="536.0"/><text class="year-label" x="88" y="540.0" text-anchor="end">1000</text><line class="year-grid" x1="100" y1="594.0" x2="754" y2="594.0"/><text class="year-label" x="88" y="598.0" text-anchor="end">1100</text><line class="year-grid" x1="100" y1="652.0" x2="754" y2="652.0"/><text class="year-label" x="88" y="656.0" text-anchor="end">1200</text><line class="year-grid" x1="100" y1="710.0" x2="754" y2="710.0"/><text class="year-label" x="88" y="714.0" text-anchor="end">1300</text><line class="year-grid" x1="100" y1="768.0" x2="754" y2="768.0"/><text class="year-label" x="88" y="772.0" text-anchor="end">1400</text><line class="year-grid" x1="100" y1="826.0" x2="754" y2="826.0"/><text class="year-label" x="88" y="830.0" text-anchor="end">1500</text><line class="year-grid" x1="100" y1="884.0" x2="754" y2="884.0"/><text class="year-label" x="88" y="888.0" text-anchor="end">1600</text><line class="year-grid" x1="100" y1="942.0" x2="754" y2="942.0"/><text class="year-label" x="88" y="946.0" text-anchor="end">1700</text><line class="year-grid" x1="100" y1="1000.0" x2="754" y2="1000.0"/><text class="year-label" x="88" y="1004.0" text-anchor="end">1800</text><line class="year-grid" x1="100" y1="1058.0" x2="754" y2="1058.0"/><text class="year-label" x="88" y="1062.0" text-anchor="end">1900</text><line class="year-grid" x1="100" y1="1116.0" x2="754" y2="1116.0"/><text class="year-label" x="88" y="1120.0" text-anchor="end">2000</text><line class="year-grid" x1="100" y1="1174.0" x2="754" y2="1174.0"/><text class="year-label" x="88" y="1178.0" text-anchor="end">2100</text><line class="year-grid" x1="100" y1="1232.0" x2="754" y2="1232.0"/><text class="year-label" x="88" y="1236.0" text-anchor="end">2200</text><line class="year-grid" x1="100" y1="1290.0" x2="754" y2="1290.0"/><text class="year-label" x="88" y="1294.0" text-anchor="end">2300</text><line class="year-grid" x1="100" y1="1348.0" x2="754" y2="1348.0"/><text class="year-label" x="88" y="1352.0" text-anchor="end">2400</text><rect x="100" y="130" width="120" height="1269" fill="rgba(216, 195, 143, 0.08)"/><rect class="column-border" x="100" y="130" width="120" height="1269"/><rect x="100" y="88" width="120" height="42" fill="#d8c38f" rx="8" ry="8"/><text class="column-label" x="160.0" y="113.0" text-anchor="middle">Zeit</text><line class="lane-divider" x1="160.0" y1="130" x2="160.0" y2="1399"/><rect x="238" y="130" width="170" height="1269" fill="rgba(122, 162, 63, 0.08)"/><rect class="column-border" x="238" y="130" width="170" height="1269"/><rect x="238" y="88" width="170" height="42" fill="#7aa23f" rx="8" ry="8"/><text class="column-label" x="323.0" y="113.0" text-anchor="middle">Elmrath Fürsten</text><rect x="426" y="130" width="155" height="1269" fill="rgba(133, 169, 78, 0.08)"/><rect class="column-border" x="426" y="130" width="155" height="1269"/><rect x="426" y="88" width="155" height="42" fill="#85a94e" rx="8" ry="8"/><text class="column-label" x="503.5" y="113.0" text-anchor="middle">Elmrath Zeitspannen</text><rect x="599" y="130" width="155" height="1269" fill="rgba(143, 177, 94, 0.08)"/><rect class="column-border" x="599" y="130" width="155" height="1269"/><rect x="599" y="88" width="155" height="42" fill="#8fb15e" rx="8" ry="8"/><text class="column-label" x="676.5" y="113.0" text-anchor="middle">Elmrath Zeitpunkte</text><clipPath id="world-erstes-zeitalter-300-1230"><rect x="106.0" y="132.0" width="45.0" height="536.0" rx="6" ry="6"/></clipPath><rect x="104.0" y="130.0" width="49.0" height="540.0" fill="#e7d9b6" stroke="#2f2822" stroke-width="0.8" rx="7" ry="7"/><g clip-path="url(#world-erstes-zeitalter-300-1230)"><text class="item-label-dark" text-anchor="middle" transform="translate(128.5 396.0) rotate(-90)"><tspan x="0" dy="0">Erstes Zeitalter</tspan></text></g><clipPath id="world-zweites-zeitalter-1231-2164"><rect x="106.0" y="672.0" width="45.0" height="537.7" rx="6" ry="6"/></clipPath><rect x="104.0" y="670.0" width="49.0" height="541.7" fill="#dcc8a0" stroke="#2f2822" stroke-width="0.8" rx="7" ry="7"/><g clip-path="url(#world-zweites-zeitalter-1231-2164)"><text class="item-label-dark" text-anchor="middle" transform="translate(128.5 936.8) rotate(-90)"><tspan x="0" dy="0">Zweites Zeitalter</tspan></text></g><clipPath id="world-drittes-zeitalter-2165-2486"><rect x="106.0" y="1213.7" width="45.0" height="182.8" rx="6" ry="6"/></clipPath><rect x="104.0" y="1211.7" width="49.0" height="186.8" fill="#cfb27d" stroke="#2f2822" stroke-width="0.8" rx="7" ry="7"/><g clip-path="url(#world-drittes-zeitalter-2165-2486)"><text class="item-label-dark" text-anchor="middle" transform="translate(128.5 1301.1) rotate(-90)"><tspan x="0" dy="0">Drittes Zeitalter</tspan></text></g><line x1="244.0" y1="276.7" x2="402.0" y2="276.7" stroke="#7aa23f" stroke-width="3" stroke-dasharray="8 5"/><rect x="246.0" y="261.7" width="154.0" height="18" fill="#fbf8f1" stroke="#7aa23f" stroke-width="1" rx="8" ry="8"/><text class="item-label-dark-small" x="254.0" y="273.7"><tspan x="254.0" dy="0">Gruendung Elmrath</tspan></text><clipPath id="elmrath-rulers-caelynn-morgenblatt-553-1041"><rect x="244.0" y="278.7" width="158.0" height="279.6" rx="6" ry="6"/></clipPath><rect x="242.0" y="276.7" width="162.0" height="283.6" fill="#7aa23f" stroke="#2f2822" stroke-width="0.8" rx="7" ry="7"/><g clip-path="url(#elmrath-rulers-caelynn-morgenblatt-553-1041)"><text class="item-label" x="248.0" y="288.7"><tspan x="248.0" dy="0">Caelynn Morgenblatt</tspan><tspan x="248.0" dy="11">553-1041</tspan></text></g><clipPath id="elmrath-rulers-thaevan-silberhain-1014-1159"><rect x="244.0" y="546.1" width="158.0" height="80.7" rx="6" ry="6"/></clipPath><rect x="242.0" y="544.1" width="162.0" height="84.7" fill="#7aa23f" stroke="#2f2822" stroke-width="0.8" rx="7" ry="7"/><g clip-path="url(#elmrath-rulers-thaevan-silberhain-1014-1159)"><text class="item-label" x="248.0" y="556.1"><tspan x="248.0" dy="0">Thaevan Silberhain</tspan><tspan x="248.0" dy="11">1014-1159</tspan></text></g><clipPath id="elmrath-rulers-elenion-silberhain-1041-1455"><rect x="244.0" y="561.8" width="158.0" height="236.7" rx="6" ry="6"/></clipPath><rect x="242.0" y="559.8" width="162.0" height="240.7" fill="#7aa23f" stroke="#2f2822" stroke-width="0.8" rx="7" ry="7"/><g clip-path="url(#elmrath-rulers-elenion-silberhain-1041-1455)"><text class="item-label" x="248.0" y="571.8"><tspan x="248.0" dy="0">Elenion Silberhain</tspan><tspan x="248.0" dy="11">1041-1455</tspan></text></g><clipPath id="elmrath-rulers-elirae-nyssien-1159-1433"><rect x="244.0" y="630.2" width="158.0" height="155.5" rx="6" ry="6"/></clipPath><rect x="242.0" y="628.2" width="162.0" height="159.5" fill="#7aa23f" stroke="#2f2822" stroke-width="0.8" rx="7" ry="7"/><g clip-path="url(#elmrath-rulers-elirae-nyssien-1159-1433)"><text class="item-label" x="248.0" y="640.2"><tspan x="248.0" dy="0">Elirae Nyssien</tspan><tspan x="248.0" dy="11">1159-1433</tspan></text></g><clipPath id="elmrath-rulers-aenyris-silberhain-1456-1014"><rect x="244.0" y="802.5" width="158.0" height="14.0" rx="6" ry="6"/></clipPath><rect x="242.0" y="800.5" width="162.0" height="18.0" fill="#7aa23f" stroke="#2f2822" stroke-width="0.8" rx="7" ry="7"/><g clip-path="url(#elmrath-rulers-aenyris-silberhain-1456-1014)"><text class="item-label-small" x="248.0" y="812.5"><tspan x="248.0" dy="0">Aenyris Silberhain</tspan></text></g><clipPath id="elmrath-rulers-orellan-d-mmerwald-1487-1610"><rect x="244.0" y="820.5" width="158.0" height="67.9" rx="6" ry="6"/></clipPath><rect x="242.0" y="818.5" width="162.0" height="71.9" fill="#7aa23f" stroke="#2f2822" stroke-width="0.8" rx="7" ry="7"/><g clip-path="url(#elmrath-rulers-orellan-d-mmerwald-1487-1610)"><text class="item-label" x="248.0" y="830.5"><tspan x="248.0" dy="0">Orellan Dämmerwald</tspan><tspan x="248.0" dy="11">1487-1610</tspan></text></g><clipPath id="elmrath-rulers-isilme-d-mmerwald-1610-1765"><rect x="244.0" y="891.8" width="158.0" height="86.5" rx="6" ry="6"/></clipPath><rect x="242.0" y="889.8" width="162.0" height="90.5" fill="#7aa23f" stroke="#2f2822" stroke-width="0.8" rx="7" ry="7"/><g clip-path="url(#elmrath-rulers-isilme-d-mmerwald-1610-1765)"><text class="item-label" x="248.0" y="901.8"><tspan x="248.0" dy="0">Isilme Dämmerwald</tspan><tspan x="248.0" dy="11">1610-1765</tspan></text></g><clipPath id="elmrath-rulers-arannis-silven-1765-1914"><rect x="244.0" y="981.7" width="158.0" height="83.0" rx="6" ry="6"/></clipPath><rect x="242.0" y="979.7" width="162.0" height="87.0" fill="#7aa23f" stroke="#2f2822" stroke-width="0.8" rx="7" ry="7"/><g clip-path="url(#elmrath-rulers-arannis-silven-1765-1914)"><text class="item-label" x="248.0" y="991.7"><tspan x="248.0" dy="0">Arannis Silven</tspan><tspan x="248.0" dy="11">1765-1914</tspan></text></g><clipPath id="elmrath-rulers-naeryss-silven-1914-2325"><rect x="244.0" y="1068.1" width="158.0" height="235.0" rx="6" ry="6"/></clipPath><rect x="242.0" y="1066.1" width="162.0" height="239.0" fill="#7aa23f" stroke="#2f2822" stroke-width="0.8" rx="7" ry="7"/><g clip-path="url(#elmrath-rulers-naeryss-silven-1914-2325)"><text class="item-label" x="248.0" y="1078.1"><tspan x="248.0" dy="0">Naeryss Silven</tspan><tspan x="248.0" dy="11">1914-2325</tspan></text></g><clipPath id="elmrath-rulers-viktoria-von-elmrath-2325-2383"><rect x="244.0" y="1306.5" width="158.0" height="30.2" rx="6" ry="6"/></clipPath><rect x="242.0" y="1304.5" width="162.0" height="34.2" fill="#7aa23f" stroke="#2f2822" stroke-width="0.8" rx="7" ry="7"/><g clip-path="url(#elmrath-rulers-viktoria-von-elmrath-2325-2383)"><text class="item-label" x="248.0" y="1316.5"><tspan x="248.0" dy="0">Viktoria</tspan><tspan x="248.0" dy="11">von Elmrath</tspan></text></g><clipPath id="elmrath-rulers-elsinya-von-elmrath-2383-2448"><rect x="244.0" y="1340.1" width="158.0" height="34.3" rx="6" ry="6"/></clipPath><rect x="242.0" y="1338.1" width="162.0" height="38.3" fill="#7aa23f" stroke="#2f2822" stroke-width="0.8" rx="7" ry="7"/><g clip-path="url(#elmrath-rulers-elsinya-von-elmrath-2383-2448)"><text class="item-label" x="248.0" y="1350.1"><tspan x="248.0" dy="0">Elsinya</tspan><tspan x="248.0" dy="11">von Elmrath</tspan></text></g><clipPath id="elmrath-rulers-thalric-von-elmrath-2443-2486"><rect x="244.0" y="1374.9" width="158.0" height="21.5" rx="6" ry="6"/></clipPath><rect x="242.0" y="1372.9" width="162.0" height="25.5" fill="#7aa23f" stroke="#2f2822" stroke-width="0.8" rx="7" ry="7"/><g clip-path="url(#elmrath-rulers-thalric-von-elmrath-2443-2486)"><text class="item-label-small" x="248.0" y="1384.9"><tspan x="248.0" dy="0">Thalric</tspan></text></g><clipPath id="elmrath-ranges-nord-s-d-konflikt-1304-1307"><rect x="432.0" y="714.3" width="143.0" height="14.0" rx="6" ry="6"/></clipPath><rect x="430.0" y="712.3" width="147.0" height="18.0" fill="#95b565" stroke="#5b1f1f" stroke-width="1.8" stroke-dasharray="6 3" rx="7" ry="7"/><g clip-path="url(#elmrath-ranges-nord-s-d-konflikt-1304-1307)"><text class="item-label-small" x="436.0" y="724.3"><tspan x="436.0" dy="0">Nord-Süd-Konflikt</tspan></text></g><clipPath id="elmrath-ranges-muschelkrieg-1401-1402"><rect x="432.0" y="770.6" width="143.0" height="14.0" rx="6" ry="6"/></clipPath><rect x="430.0" y="768.6" width="147.0" height="18.0" fill="#95b565" stroke="#5b1f1f" stroke-width="1.8" stroke-dasharray="6 3" rx="7" ry="7"/><g clip-path="url(#elmrath-ranges-muschelkrieg-1401-1402)"><text class="item-label-small" x="436.0" y="780.6"><tspan x="436.0" dy="0">Muschelkrieg</tspan></text></g><polygon points="676.5,1365.3 686.5,1375.3 676.5,1385.3 666.5,1375.3" fill="#95b565" stroke="#2f2822" stroke-width="1"/><line class="point-line" x1="676.5" y1="1385.3" x2="676.5" y2="1403.3"/><text class="item-label-dark" x="680.5" y="1399.3"><tspan x="680.5" dy="0">Das Sonnenwunder</tspan><tspan x="680.5" dy="11">von Valmere</tspan></text></svg>