<svg xmlns="http://www.w3.org/2000/svg" width="794" height="1459" viewBox="0 0 794 1459" role="img" aria-labelledby="title desc"><title id="title">Mariven: Chronik des Fürstentums</title><desc id="desc">Geschichte des Fürstentums Mariven</desc><style>.title{font:700 24px Georgia, serif;fill:#1f1a16;}.subtitle{font:400 13px Georgia, serif;fill:#5a4f45;}.axis-label{font:600 11px Arial, sans-serif;fill:#5b5248;}.year-label{font:600 10px Arial, sans-serif;fill:#6a6158;}.column-label{font:700 12px Arial, sans-serif;fill:#201b17;}.item-label{font:600 10px Arial, sans-serif;fill:#ffffff;}.item-label-small{font:600 8.5px Arial, sans-serif;fill:#ffffff;}.item-label-dark{font:600 10px Arial, sans-serif;fill:#2c241d;}.item-label-dark-small{font:600 8.5px Arial, sans-serif;fill:#2c241d;}.lane-divider{stroke:#ffffff;stroke-width:1;opacity:0.7;}.column-border{stroke:#938778;stroke-width:1.2;fill:none;}.year-grid{stroke:#d8cec0;stroke-width:1;}.era-line{stroke:#b8ab98;stroke-width:1.2;stroke-dasharray:5 4;}.point-line{stroke:#3a3129;stroke-width:1.4;}</style><text class="title" x="100" y="42">Mariven: Chronik des Fürstentums</text><text class="subtitle" x="100" y="66">Geschichte des Fürstentums Mariven</text><rect x="100" y="130.0" width="654" height="540.0" fill="#f7f1df" opacity="0.45"/><text class="axis-label" x="106" y="144.0">Erstes Zeitalter</text><line class="era-line" x1="100" y1="130.0" x2="754" y2="130.0"/><rect x="100" y="670.0" width="654" height="541.7" fill="#efe6d2" opacity="0.45"/><text class="axis-label" x="106" y="684.0">Zweites Zeitalter</text><line class="era-line" x1="100" y1="670.0" x2="754" y2="670.0"/><rect x="100" y="1211.7" width="654" height="186.8" fill="#e8ddca" opacity="0.45"/><text class="axis-label" x="106" y="1225.7">Drittes Zeitalter</text><line class="era-line" x1="100" y1="1211.7" x2="754" y2="1211.7"/><line class="year-grid" x1="100" y1="130.0" x2="754" y2="130.0"/><text class="year-label" x="88" y="134.0" text-anchor="end">300</text><line class="year-grid" x1="100" y1="188.0" x2="754" y2="188.0"/><text class="year-label" x="88" y="192.0" text-anchor="end">400</text><line class="year-grid" x1="100" y1="246.0" x2="754" y2="246.0"/><text class="year-label" x="88" y="250.0" text-anchor="end">500</text><line class="year-grid" x1="100" y1="304.0" x2="754" y2="304.0"/><text class="year-label" x="88" y="308.0" text-anchor="end">600</text><line class="year-grid" x1="100" y1="362.0" x2="754" y2="362.0"/><text class="year-label" x="88" y="366.0" text-anchor="end">700</text><line class="year-grid" x1="100" y1="420.0" x2="754" y2="420.0"/><text class="year-label" x="88" y="424.0" text-anchor="end">800</text><line class="year-grid" x1="100" y1="478.0" x2="754" y2="478.0"/><text class="year-label" x="88" y="482.0" text-anchor="end">900</text><line class="year-grid" x1="100" y1="536.0" x2="754" y2="536.0"/><text class="year-label" x="88" y="540.0" text-anchor="end">1000</text><line class="year-grid" x1="100" y1="594.0" x2="754" y2="594.0"/><text class="year-label" x="88" y="598.0" text-anchor="end">1100</text><line class="year-grid" x1="100" y1="652.0" x2="754" y2="652.0"/><text class="year-label" x="88" y="656.0" text-anchor="end">1200</text><line class="year-grid" x1="100" y1="710.0" x2="754" y2="710.0"/><text class="year-label" x="88" y="714.0" text-anchor="end">1300</text><line class="year-grid" x1="100" y1="768.0" x2="754" y2="768.0"/><text class="year-label" x="88" y="772.0" text-anchor="end">1400</text><line class="year-grid" x1="100" y1="826.0" x2="754" y2="826.0"/><text class="year-label" x="88" y="830.0" text-anchor="end">1500</text><line class="year-grid" x1="100" y1="884.0" x2="754" y2="884.0"/><text class="year-label" x="88" y="888.0" text-anchor="end">1600</text><line class="year-grid" x1="100" y1="942.0" x2="754" y2="942.0"/><text class="year-label" x="88" y="946.0" text-anchor="end">1700</text><line class="year-grid" x1="100" y1="1000.0" x2="754" y2="1000.0"/><text class="year-label" x="88" y="1004.0" text-anchor="end">1800</text><line class="year-grid" x1="100" y1="1058.0" x2="754" y2="1058.0"/><text class="year-label" x="88" y="1062.0" text-anchor="end">1900</text><line class="year-grid" x1="100" y1="1116.0" x2="754" y2="1116.0"/><text class="year-label" x="88" y="1120.0" text-anchor="end">2000</text><line class="year-grid" x1="100" y1="1174.0" x2="754" y2="1174.0"/><text class="year-label" x="88" y="1178.0" text-anchor="end">2100</text><line class="year-grid" x1="100" y1="1232.0" x2="754" y2="1232.0"/><text class="year-label" x="88" y="1236.0" text-anchor="end">2200</text><line class="year-grid" x1="100" y1="1290.0" x2="754" y2="1290.0"/><text class="year-label" x="88" y="1294.0" text-anchor="end">2300</text><line class="year-grid" x1="100" y1="1348.0" x2="754" y2="1348.0"/><text class="year-label" x="88" y="1352.0" text-anchor="end">2400</text><rect x="100" y="130" width="120" height="1269" fill="rgba(216, 195, 143, 0.08)"/><rect class="column-border" x="100" y="130" width="120" height="1269"/><rect x="100" y="88" width="120" height="42" fill="#d8c38f" rx="8" ry="8"/><text class="column-label" x="160.0" y="113.0" text-anchor="middle">Zeit</text><line class="lane-divider" x1="160.0" y1="130" x2="160.0" y2="1399"/><rect x="238" y="130" width="170" height="1269" fill="rgba(47, 138, 127, 0.08)"/><rect class="column-border" x="238" y="130" width="170" height="1269"/><rect x="238" y="88" width="170" height="42" fill="#2f8a7f" rx="8" ry="8"/><text class="column-label" x="323.0" y="113.0" text-anchor="middle">Mariven Fürsten</text><rect x="426" y="130" width="155" height="1269" fill="rgba(64, 147, 137, 0.08)"/><rect class="column-border" x="426" y="130" width="155" height="1269"/><rect x="426" y="88" width="155" height="42" fill="#409389" rx="8" ry="8"/><text class="column-label" x="503.5" y="113.0" text-anchor="middle">Mariven Zeitspannen</text><rect x="599" y="130" width="155" height="1269" fill="rgba(80, 157, 147, 0.08)"/><rect class="column-border" x="599" y="130" width="155" height="1269"/><rect x="599" y="88" width="155" height="42" fill="#509d93" rx="8" ry="8"/><text class="column-label" x="676.5" y="113.0" text-anchor="middle">Mariven Zeitpunkte</text><clipPath id="world-erstes-zeitalter-300-1230"><rect x="106.0" y="132.0" width="45.0" height="536.0" rx="6" ry="6"/></clipPath><rect x="104.0" y="130.0" width="49.0" height="540.0" fill="#e7d9b6" stroke="#2f2822" stroke-width="0.8" rx="7" ry="7"/><g clip-path="url(#world-erstes-zeitalter-300-1230)"><text class="item-label-dark" text-anchor="middle" transform="translate(128.5 396.0) rotate(-90)"><tspan x="0" dy="0">Erstes Zeitalter</tspan></text></g><clipPath id="world-zweites-zeitalter-1231-2164"><rect x="106.0" y="672.0" width="45.0" height="537.7" rx="6" ry="6"/></clipPath><rect x="104.0" y="670.0" width="49.0" height="541.7" fill="#dcc8a0" stroke="#2f2822" stroke-width="0.8" rx="7" ry="7"/><g clip-path="url(#world-zweites-zeitalter-1231-2164)"><text class="item-label-dark" text-anchor="middle" transform="translate(128.5 936.8) rotate(-90)"><tspan x="0" dy="0">Zweites Zeitalter</tspan></text></g><clipPath id="world-drittes-zeitalter-2165-2486"><rect x="106.0" y="1213.7" width="45.0" height="182.8" rx="6" ry="6"/></clipPath><rect x="104.0" y="1211.7" width="49.0" height="186.8" fill="#cfb27d" stroke="#2f2822" stroke-width="0.8" rx="7" ry="7"/><g clip-path="url(#world-drittes-zeitalter-2165-2486)"><text class="item-label-dark" text-anchor="middle" transform="translate(128.5 1301.1) rotate(-90)"><tspan x="0" dy="0">Drittes Zeitalter</tspan></text></g><line x1="244.0" y1="247.7" x2="402.0" y2="247.7" stroke="#2f8a7f" stroke-width="3" stroke-dasharray="8 5"/><rect x="246.0" y="232.7" width="154.0" height="18" fill="#fbf8f1" stroke="#2f8a7f" stroke-width="1" rx="8" ry="8"/><text class="item-label-dark-small" x="254.0" y="244.7"><tspan x="254.0" dy="0">Gruendung Mariven</tspan></text><clipPath id="mariven-rulers-lureano-vintar-503-547"><rect x="244.0" y="249.7" width="158.0" height="22.1" rx="6" ry="6"/></clipPath><rect x="242.0" y="247.7" width="162.0" height="26.1" fill="#2f8a7f" stroke="#2f2822" stroke-width="0.8" rx="7" ry="7"/><g clip-path="url(#mariven-rulers-lureano-vintar-503-547)"><text class="item-label-small" x="248.0" y="259.7"><tspan x="248.0" dy="0">Lureano Vintar</tspan></text></g><clipPath id="mariven-rulers-vennira-cassalay-547-603"><rect x="244.0" y="275.3" width="158.0" height="29.1" rx="6" ry="6"/></clipPath><rect x="242.0" y="273.3" width="162.0" height="33.1" fill="#2f8a7f" stroke="#2f2822" stroke-width="0.8" rx="7" ry="7"/><g clip-path="url(#mariven-rulers-vennira-cassalay-547-603)"><text class="item-label" x="248.0" y="285.3"><tspan x="248.0" dy="0">Vennira Cassalay</tspan></text></g><clipPath id="mariven-rulers-domerr-talzo-603-685"><rect x="244.0" y="307.7" width="158.0" height="44.1" rx="6" ry="6"/></clipPath><rect x="242.0" y="305.7" width="162.0" height="48.1" fill="#2f8a7f" stroke="#2f2822" stroke-width="0.8" rx="7" ry="7"/><g clip-path="url(#mariven-rulers-domerr-talzo-603-685)"><text class="item-label" x="248.0" y="317.7"><tspan x="248.0" dy="0">Domerr Talzo</tspan><tspan x="248.0" dy="11">603-685</tspan></text></g><clipPath id="mariven-rulers-yllian-marris-685-750"><rect x="244.0" y="355.3" width="158.0" height="34.3" rx="6" ry="6"/></clipPath><rect x="242.0" y="353.3" width="162.0" height="38.3" fill="#2f8a7f" stroke="#2f2822" stroke-width="0.8" rx="7" ry="7"/><g clip-path="url(#mariven-rulers-yllian-marris-685-750)"><text class="item-label" x="248.0" y="365.3"><tspan x="248.0" dy="0">Yllian Marris</tspan></text></g><clipPath id="mariven-rulers-faelyn-niros-750-912"><rect x="244.0" y="393.0" width="158.0" height="90.5" rx="6" ry="6"/></clipPath><rect x="242.0" y="391.0" width="162.0" height="94.5" fill="#2f8a7f" stroke="#2f2822" stroke-width="0.8" rx="7" ry="7"/><g clip-path="url(#mariven-rulers-faelyn-niros-750-912)"><text class="item-label" x="248.0" y="403.0"><tspan x="248.0" dy="0">Faelyn Niros</tspan><tspan x="248.0" dy="11">750-912</tspan></text></g><clipPath id="mariven-rulers-perrik-grahm-912-983"><rect x="244.0" y="487.0" width="158.0" height="37.8" rx="6" ry="6"/></clipPath><rect x="242.0" y="485.0" width="162.0" height="41.8" fill="#2f8a7f" stroke="#2f2822" stroke-width="0.8" rx="7" ry="7"/><g clip-path="url(#mariven-rulers-perrik-grahm-912-983)"><text class="item-label" x="248.0" y="497.0"><tspan x="248.0" dy="0">Perrik Grahm</tspan></text></g><clipPath id="mariven-rulers-celetha-vintar-ii-983-1036"><rect x="244.0" y="528.1" width="158.0" height="27.3" rx="6" ry="6"/></clipPath><rect x="242.0" y="526.1" width="162.0" height="31.3" fill="#2f8a7f" stroke="#2f2822" stroke-width="0.8" rx="7" ry="7"/><g clip-path="url(#mariven-rulers-celetha-vintar-ii-983-1036)"><text class="item-label" x="248.0" y="538.1"><tspan x="248.0" dy="0">Celetha</tspan><tspan x="248.0" dy="11">Vintar II</tspan></text></g><clipPath id="mariven-rulers-zordak-eisenbei-1036-1121"><rect x="244.0" y="558.9" width="158.0" height="45.9" rx="6" ry="6"/></clipPath><rect x="242.0" y="556.9" width="162.0" height="49.9" fill="#2f8a7f" stroke="#2f2822" stroke-width="0.8" rx="7" ry="7"/><g clip-path="url(#mariven-rulers-zordak-eisenbei-1036-1121)"><text class="item-label" x="248.0" y="568.9"><tspan x="248.0" dy="0">Zordak Eisenbeiß</tspan><tspan x="248.0" dy="11">1036-1121</tspan></text></g><clipPath id="mariven-rulers-aerinelle-vellora-1121-1399"><rect x="244.0" y="608.2" width="158.0" height="157.8" rx="6" ry="6"/></clipPath><rect x="242.0" y="606.2" width="162.0" height="161.8" fill="#2f8a7f" stroke="#2f2822" stroke-width="0.8" rx="7" ry="7"/><g clip-path="url(#mariven-rulers-aerinelle-vellora-1121-1399)"><text class="item-label" x="248.0" y="618.2"><tspan x="248.0" dy="0">Aerinelle Vellora</tspan><tspan x="248.0" dy="11">1121-1399</tspan></text></g><clipPath id="mariven-rulers-candamir-silberhand-1399-1623"><rect x="244.0" y="769.4" width="158.0" height="126.5" rx="6" ry="6"/></clipPath><rect x="242.0" y="767.4" width="162.0" height="130.5" fill="#2f8a7f" stroke="#2f2822" stroke-width="0.8" rx="7" ry="7"/><g clip-path="url(#mariven-rulers-candamir-silberhand-1399-1623)"><text class="item-label" x="248.0" y="779.4"><tspan x="248.0" dy="0">Candamir Silberhand</tspan><tspan x="248.0" dy="11">1399-1623</tspan></text></g><clipPath id="mariven-rulers-marcellus-daevorn-1623-1664"><rect x="244.0" y="899.3" width="158.0" height="20.4" rx="6" ry="6"/></clipPath><rect x="242.0" y="897.3" width="162.0" height="24.4" fill="#2f8a7f" stroke="#2f2822" stroke-width="0.8" rx="7" ry="7"/><g clip-path="url(#mariven-rulers-marcellus-daevorn-1623-1664)"><text class="item-label-small" x="248.0" y="909.3"><tspan x="248.0" dy="0">Marcellus Daevorn</tspan></text></g><clipPath id="mariven-rulers-vanya-cerelin-1664-1886"><rect x="244.0" y="923.1" width="158.0" height="125.3" rx="6" ry="6"/></clipPath><rect x="242.0" y="921.1" width="162.0" height="129.3" fill="#2f8a7f" stroke="#2f2822" stroke-width="0.8" rx="7" ry="7"/><g clip-path="url(#mariven-rulers-vanya-cerelin-1664-1886)"><text class="item-label" x="248.0" y="933.1"><tspan x="248.0" dy="0">Vanya Cerelin</tspan><tspan x="248.0" dy="11">1664-1886</tspan></text></g><clipPath id="mariven-rulers-halren-marris-ii-1886-1912"><rect x="244.0" y="1051.9" width="158.0" height="14.0" rx="6" ry="6"/></clipPath><rect x="242.0" y="1049.9" width="162.0" height="18.0" fill="#2f8a7f" stroke="#2f2822" stroke-width="0.8" rx="7" ry="7"/><g clip-path="url(#mariven-rulers-halren-marris-ii-1886-1912)"><text class="item-label-small" x="248.0" y="1061.9"><tspan x="248.0" dy="0">Halren</tspan></text></g><clipPath id="mariven-rulers-orryn-talzo-ii-1912-1971"><rect x="244.0" y="1067.0" width="158.0" height="30.8" rx="6" ry="6"/></clipPath><rect x="242.0" y="1065.0" width="162.0" height="34.8" fill="#2f8a7f" stroke="#2f2822" stroke-width="0.8" rx="7" ry="7"/><g clip-path="url(#mariven-rulers-orryn-talzo-ii-1912-1971)"><text class="item-label" x="248.0" y="1077.0"><tspan x="248.0" dy="0">Orryn</tspan><tspan x="248.0" dy="11">Talzo II</tspan></text></g><clipPath id="mariven-rulers-zallion-vintar-iii-1971-2030"><rect x="244.0" y="1101.2" width="158.0" height="30.8" rx="6" ry="6"/></clipPath><rect x="242.0" y="1099.2" width="162.0" height="34.8" fill="#2f8a7f" stroke="#2f2822" stroke-width="0.8" rx="7" ry="7"/><g clip-path="url(#mariven-rulers-zallion-vintar-iii-1971-2030)"><text class="item-label" x="248.0" y="1111.2"><tspan x="248.0" dy="0">Zallion</tspan><tspan x="248.0" dy="11">Vintar III</tspan></text></g><clipPath id="mariven-rulers-aelaria-talzo-2030-2158"><rect x="244.0" y="1135.4" width="158.0" height="70.8" rx="6" ry="6"/></clipPath><rect x="242.0" y="1133.4" width="162.0" height="74.8" fill="#2f8a7f" stroke="#2f2822" stroke-width="0.8" rx="7" ry="7"/><g clip-path="url(#mariven-rulers-aelaria-talzo-2030-2158)"><text class="item-label" x="248.0" y="1145.4"><tspan x="248.0" dy="0">Aelaria Talzo</tspan><tspan x="248.0" dy="11">2030-2158</tspan></text></g><clipPath id="mariven-rulers-elim-marthus-2158-2245"><rect x="244.0" y="1209.6" width="158.0" height="47.0" rx="6" ry="6"/></clipPath><rect x="242.0" y="1207.6" width="162.0" height="51.0" fill="#2f8a7f" stroke="#2f2822" stroke-width="0.8" rx="7" ry="7"/><g clip-path="url(#mariven-rulers-elim-marthus-2158-2245)"><text class="item-label" x="248.0" y="1219.6"><tspan x="248.0" dy="0">Elim Marthus</tspan><tspan x="248.0" dy="11">2158-2245</tspan></text></g><clipPath id="mariven-rulers-irion-cassalay-ii-2245-2456"><rect x="244.0" y="1260.1" width="158.0" height="119.0" rx="6" ry="6"/></clipPath><rect x="242.0" y="1258.1" width="162.0" height="123.0" fill="#2f8a7f" stroke="#2f2822" stroke-width="0.8" rx="7" ry="7"/><g clip-path="url(#mariven-rulers-irion-cassalay-ii-2245-2456)"><text class="item-label" x="248.0" y="1270.1"><tspan x="248.0" dy="0">Irion</tspan><tspan x="248.0" dy="11">Cassalay II</tspan><tspan x="248.0" dy="11">2245-2456</tspan></text></g><clipPath id="mariven-rulers-lyssander-valera-2456-2486"><rect x="244.0" y="1382.5" width="158.0" height="14.0" rx="6" ry="6"/></clipPath><rect x="242.0" y="1380.5" width="162.0" height="18.0" fill="#2f8a7f" stroke="#2f2822" stroke-width="0.8" rx="7" ry="7"/><g clip-path="url(#mariven-rulers-lyssander-valera-2456-2486)"><text class="item-label-small" x="248.0" y="1392.5"><tspan x="248.0" dy="0">Lyssander Valera</tspan></text></g><clipPath id="mariven-ranges-baraberen-berf-lle-von-mariven-1236-1387"><rect x="432.0" y="674.9" width="143.0" height="84.2" rx="6" ry="6"/></clipPath><rect x="430.0" y="672.9" width="147.0" height="88.2" fill="#59a199" stroke="#2f2822" stroke-width="0.8" rx="7" ry="7"/><g clip-path="url(#mariven-ranges-baraberen-berf-lle-von-mariven-1236-1387)"><text class="item-label" x="436.0" y="684.9"><tspan x="436.0" dy="0">Baraberenüberfälle</tspan><tspan x="436.0" dy="11">von Mariven</tspan><tspan x="436.0" dy="11">1236-1387</tspan></text></g><clipPath id="mariven-ranges-muschelkrieg-1401-1402"><rect x="432.0" y="770.6" width="143.0" height="14.0" rx="6" ry="6"/></clipPath><rect x="430.0" y="768.6" width="147.0" height="18.0" fill="#59a199" stroke="#5b1f1f" stroke-width="1.8" stroke-dasharray="6 3" rx="7" ry="7"/><g clip-path="url(#mariven-ranges-muschelkrieg-1401-1402)"><text class="item-label-small" x="436.0" y="780.6"><tspan x="436.0" dy="0">Muschelkrieg</tspan></text></g><clipPath id="mariven-ranges-runenbann-konflikt-1603-1611"><rect x="432.0" y="887.7" width="143.0" height="14.0" rx="6" ry="6"/></clipPath><rect x="430.0" y="885.7" width="147.0" height="18.0" fill="#59a199" stroke="#5b1f1f" stroke-width="1.8" stroke-dasharray="6 3" rx="7" ry="7"/><g clip-path="url(#mariven-ranges-runenbann-konflikt-1603-1611)"><text class="item-label-small" x="436.0" y="897.7"><tspan x="436.0" dy="0">Runenbann-Konflikt</tspan></text></g></svg>