<svg xmlns="http://www.w3.org/2000/svg" width="794" height="1459" viewBox="0 0 794 1459" role="img" aria-labelledby="title desc"><title id="title">Schwarzklamm: Chronik des Fürstentums</title><desc id="desc">Geschichte des Fürstentums Schwarzklamm</desc><style>.title{font:700 24px Georgia, serif;fill:#1f1a16;}.subtitle{font:400 13px Georgia, serif;fill:#5a4f45;}.axis-label{font:600 11px Arial, sans-serif;fill:#5b5248;}.year-label{font:600 10px Arial, sans-serif;fill:#6a6158;}.column-label{font:700 12px Arial, sans-serif;fill:#201b17;}.item-label{font:600 10px Arial, sans-serif;fill:#ffffff;}.item-label-small{font:600 8.5px Arial, sans-serif;fill:#ffffff;}.item-label-dark{font:600 10px Arial, sans-serif;fill:#2c241d;}.item-label-dark-small{font:600 8.5px Arial, sans-serif;fill:#2c241d;}.lane-divider{stroke:#ffffff;stroke-width:1;opacity:0.7;}.column-border{stroke:#938778;stroke-width:1.2;fill:none;}.year-grid{stroke:#d8cec0;stroke-width:1;}.era-line{stroke:#b8ab98;stroke-width:1.2;stroke-dasharray:5 4;}.point-line{stroke:#3a3129;stroke-width:1.4;}</style><text class="title" x="100" y="42">Schwarzklamm: Chronik des Fürstentums</text><text class="subtitle" x="100" y="66">Geschichte des Fürstentums Schwarzklamm</text><rect x="100" y="130.0" width="654" height="540.0" fill="#f7f1df" opacity="0.45"/><text class="axis-label" x="106" y="144.0">Erstes Zeitalter</text><line class="era-line" x1="100" y1="130.0" x2="754" y2="130.0"/><rect x="100" y="670.0" width="654" height="541.7" fill="#efe6d2" opacity="0.45"/><text class="axis-label" x="106" y="684.0">Zweites Zeitalter</text><line class="era-line" x1="100" y1="670.0" x2="754" y2="670.0"/><rect x="100" y="1211.7" width="654" height="186.8" fill="#e8ddca" opacity="0.45"/><text class="axis-label" x="106" y="1225.7">Drittes Zeitalter</text><line class="era-line" x1="100" y1="1211.7" x2="754" y2="1211.7"/><line class="year-grid" x1="100" y1="130.0" x2="754" y2="130.0"/><text class="year-label" x="88" y="134.0" text-anchor="end">300</text><line class="year-grid" x1="100" y1="188.0" x2="754" y2="188.0"/><text class="year-label" x="88" y="192.0" text-anchor="end">400</text><line class="year-grid" x1="100" y1="246.0" x2="754" y2="246.0"/><text class="year-label" x="88" y="250.0" text-anchor="end">500</text><line class="year-grid" x1="100" y1="304.0" x2="754" y2="304.0"/><text class="year-label" x="88" y="308.0" text-anchor="end">600</text><line class="year-grid" x1="100" y1="362.0" x2="754" y2="362.0"/><text class="year-label" x="88" y="366.0" text-anchor="end">700</text><line class="year-grid" x1="100" y1="420.0" x2="754" y2="420.0"/><text class="year-label" x="88" y="424.0" text-anchor="end">800</text><line class="year-grid" x1="100" y1="478.0" x2="754" y2="478.0"/><text class="year-label" x="88" y="482.0" text-anchor="end">900</text><line class="year-grid" x1="100" y1="536.0" x2="754" y2="536.0"/><text class="year-label" x="88" y="540.0" text-anchor="end">1000</text><line class="year-grid" x1="100" y1="594.0" x2="754" y2="594.0"/><text class="year-label" x="88" y="598.0" text-anchor="end">1100</text><line class="year-grid" x1="100" y1="652.0" x2="754" y2="652.0"/><text class="year-label" x="88" y="656.0" text-anchor="end">1200</text><line class="year-grid" x1="100" y1="710.0" x2="754" y2="710.0"/><text class="year-label" x="88" y="714.0" text-anchor="end">1300</text><line class="year-grid" x1="100" y1="768.0" x2="754" y2="768.0"/><text class="year-label" x="88" y="772.0" text-anchor="end">1400</text><line class="year-grid" x1="100" y1="826.0" x2="754" y2="826.0"/><text class="year-label" x="88" y="830.0" text-anchor="end">1500</text><line class="year-grid" x1="100" y1="884.0" x2="754" y2="884.0"/><text class="year-label" x="88" y="888.0" text-anchor="end">1600</text><line class="year-grid" x1="100" y1="942.0" x2="754" y2="942.0"/><text class="year-label" x="88" y="946.0" text-anchor="end">1700</text><line class="year-grid" x1="100" y1="1000.0" x2="754" y2="1000.0"/><text class="year-label" x="88" y="1004.0" text-anchor="end">1800</text><line class="year-grid" x1="100" y1="1058.0" x2="754" y2="1058.0"/><text class="year-label" x="88" y="1062.0" text-anchor="end">1900</text><line class="year-grid" x1="100" y1="1116.0" x2="754" y2="1116.0"/><text class="year-label" x="88" y="1120.0" text-anchor="end">2000</text><line class="year-grid" x1="100" y1="1174.0" x2="754" y2="1174.0"/><text class="year-label" x="88" y="1178.0" text-anchor="end">2100</text><line class="year-grid" x1="100" y1="1232.0" x2="754" y2="1232.0"/><text class="year-label" x="88" y="1236.0" text-anchor="end">2200</text><line class="year-grid" x1="100" y1="1290.0" x2="754" y2="1290.0"/><text class="year-label" x="88" y="1294.0" text-anchor="end">2300</text><line class="year-grid" x1="100" y1="1348.0" x2="754" y2="1348.0"/><text class="year-label" x="88" y="1352.0" text-anchor="end">2400</text><rect x="100" y="130" width="120" height="1269" fill="rgba(216, 195, 143, 0.08)"/><rect class="column-border" x="100" y="130" width="120" height="1269"/><rect x="100" y="88" width="120" height="42" fill="#d8c38f" rx="8" ry="8"/><text class="column-label" x="160.0" y="113.0" text-anchor="middle">Zeit</text><line class="lane-divider" x1="160.0" y1="130" x2="160.0" y2="1399"/><rect x="238" y="130" width="170" height="1269" fill="rgba(79, 85, 99, 0.08)"/><rect class="column-border" x="238" y="130" width="170" height="1269"/><rect x="238" y="88" width="170" height="42" fill="#4f5563" rx="8" ry="8"/><text class="column-label" x="323.0" y="113.0" text-anchor="middle">Schwarzklamm Fürsten</text><rect x="426" y="130" width="155" height="1269" fill="rgba(93, 99, 111, 0.08)"/><rect class="column-border" x="426" y="130" width="155" height="1269"/><rect x="426" y="88" width="155" height="42" fill="#5d636f" rx="8" ry="8"/><text class="column-label" x="503.5" y="113.0" text-anchor="middle">Schwarzklamm Zeitspannen</text><rect x="599" y="130" width="155" height="1269" fill="rgba(107, 112, 124, 0.08)"/><rect class="column-border" x="599" y="130" width="155" height="1269"/><rect x="599" y="88" width="155" height="42" fill="#6b707c" rx="8" ry="8"/><text class="column-label" x="676.5" y="113.0" text-anchor="middle">Schwarzklamm Zeitpunkte</text><clipPath id="world-erstes-zeitalter-300-1230"><rect x="106.0" y="132.0" width="45.0" height="536.0" rx="6" ry="6"/></clipPath><rect x="104.0" y="130.0" width="49.0" height="540.0" fill="#e7d9b6" stroke="#2f2822" stroke-width="0.8" rx="7" ry="7"/><g clip-path="url(#world-erstes-zeitalter-300-1230)"><text class="item-label-dark" text-anchor="middle" transform="translate(128.5 396.0) rotate(-90)"><tspan x="0" dy="0">Erstes Zeitalter</tspan></text></g><clipPath id="world-zweites-zeitalter-1231-2164"><rect x="106.0" y="672.0" width="45.0" height="537.7" rx="6" ry="6"/></clipPath><rect x="104.0" y="670.0" width="49.0" height="541.7" fill="#dcc8a0" stroke="#2f2822" stroke-width="0.8" rx="7" ry="7"/><g clip-path="url(#world-zweites-zeitalter-1231-2164)"><text class="item-label-dark" text-anchor="middle" transform="translate(128.5 936.8) rotate(-90)"><tspan x="0" dy="0">Zweites Zeitalter</tspan></text></g><clipPath id="world-drittes-zeitalter-2165-2486"><rect x="106.0" y="1213.7" width="45.0" height="182.8" rx="6" ry="6"/></clipPath><rect x="104.0" y="1211.7" width="49.0" height="186.8" fill="#cfb27d" stroke="#2f2822" stroke-width="0.8" rx="7" ry="7"/><g clip-path="url(#world-drittes-zeitalter-2165-2486)"><text class="item-label-dark" text-anchor="middle" transform="translate(128.5 1301.1) rotate(-90)"><tspan x="0" dy="0">Drittes Zeitalter</tspan></text></g><line x1="244.0" y1="146.2" x2="402.0" y2="146.2" stroke="#4f5563" stroke-width="3" stroke-dasharray="8 5"/><rect x="246.0" y="131.2" width="154.0" height="18" fill="#fbf8f1" stroke="#4f5563" stroke-width="1" rx="8" ry="8"/><text class="item-label-dark-small" x="254.0" y="143.2"><tspan x="254.0" dy="0">Gruendung Schwarzklamm</tspan></text><clipPath id="schwarzklamm-rulers-durngar-schwarzschild-2410-2486"><rect x="244.0" y="1355.8" width="158.0" height="40.7" rx="6" ry="6"/></clipPath><rect x="242.0" y="1353.8" width="162.0" height="44.7" fill="#4f5563" stroke="#2f2822" stroke-width="0.8" rx="7" ry="7"/><g clip-path="url(#schwarzklamm-rulers-durngar-schwarzschild-2410-2486)"><text class="item-label" x="248.0" y="1365.8"><tspan x="248.0" dy="0">Durngar Schwarzschild</tspan><tspan x="248.0" dy="11">2410-2486</tspan></text></g><clipPath id="schwarzklamm-ranges-erzkrieg-von-eron-gath-1526-1528"><rect x="432.0" y="843.1" width="143.0" height="14.0" rx="6" ry="6"/></clipPath><rect x="430.0" y="841.1" width="147.0" height="18.0" fill="#727782" stroke="#5b1f1f" stroke-width="1.8" stroke-dasharray="6 3" rx="7" ry="7"/><g clip-path="url(#schwarzklamm-ranges-erzkrieg-von-eron-gath-1526-1528)"><text class="item-label-small" x="436.0" y="853.1"><tspan x="436.0" dy="0">Erzkrieg</tspan></text></g><clipPath id="schwarzklamm-ranges-krieg-der-kl-fte-2319-2410"><rect x="432.0" y="1303.0" width="143.0" height="49.4" rx="6" ry="6"/></clipPath><rect x="430.0" y="1301.0" width="147.0" height="53.4" fill="#727782" stroke="#5b1f1f" stroke-width="1.8" stroke-dasharray="6 3" rx="7" ry="7"/><g clip-path="url(#schwarzklamm-ranges-krieg-der-kl-fte-2319-2410)"><text class="item-label" x="436.0" y="1313.0"><tspan x="436.0" dy="0">Krieg</tspan><tspan x="436.0" dy="11">der Klüfte</tspan><tspan x="436.0" dy="11">2319-2410</tspan></text></g><clipPath id="schwarzklamm-ranges-zeitalter-des-schildes-2410-2486"><rect x="432.0" y="1355.8" width="143.0" height="40.7" rx="6" ry="6"/></clipPath><rect x="430.0" y="1353.8" width="147.0" height="44.7" fill="#727782" stroke="#2f2822" stroke-width="0.8" rx="7" ry="7"/><g clip-path="url(#schwarzklamm-ranges-zeitalter-des-schildes-2410-2486)"><text class="item-label" x="436.0" y="1365.8"><tspan x="436.0" dy="0">Zeitalter</tspan><tspan x="436.0" dy="11">des Schildes</tspan><tspan x="436.0" dy="11">2410-2486</tspan></text></g><polygon points="676.5,136.2 686.5,146.2 676.5,156.2 666.5,146.2" fill="#727782" stroke="#2f2822" stroke-width="1"/><line class="point-line" x1="676.5" y1="156.2" x2="676.5" y2="174.2"/><text class="item-label-dark" x="680.5" y="170.2"><tspan x="680.5" dy="0">Bardum Eisenklang</tspan></text><polygon points="676.5,930.8 686.5,940.8 676.5,950.8 666.5,940.8" fill="#727782" stroke="#2f2822" stroke-width="1"/><line class="point-line" x1="676.5" y1="950.8" x2="676.5" y2="968.8"/><text class="item-label-dark" x="680.5" y="964.8"><tspan x="680.5" dy="0">Die Erschütterung</tspan><tspan x="680.5" dy="11">der Tiefe</tspan></text><polygon points="676.5,1200.5 686.5,1210.5 676.5,1220.5 666.5,1210.5" fill="#727782" stroke="#2f2822" stroke-width="1"/><line class="point-line" x1="676.5" y1="1220.5" x2="676.5" y2="1238.5"/><text class="item-label-dark" x="680.5" y="1234.5"><tspan x="680.5" dy="0">Die Feuertaufe</tspan><tspan x="680.5" dy="11">von Kar'drathar</tspan></text></svg>